<mxfile host="app.diagrams.net" agent="Mozilla/5.0 (Windows NT 10.0; Win64; x64) AppleWebKit/537.36 (KHTML, like Gecko) Chrome/119.0.0.0 Safari/537.36" version="24.7.7" pages="2">
  <diagram name="E-R图" id="OdQdPhHy2Hf_hRAgfHRp">
    <mxGraphModel dx="634" dy="20" grid="0" gridSize="10" guides="1" tooltips="1" connect="1" arrows="0" fold="1" page="0" pageScale="1" pageWidth="827" pageHeight="1169" math="0" shadow="0">
      <root>
        <mxCell id="0" />
        <mxCell id="1" parent="0" />
        <mxCell id="aesqJSntFiqOSr08x3zS-127" value="【ERP】业态数据同步" style="shape=table;startSize=30;container=1;collapsible=1;childLayout=tableLayout;fixedRows=1;rowLines=0;fontStyle=1;align=center;resizeLast=1;fillColor=#dae8fc;strokeColor=#6c8ebf;" parent="1" vertex="1">
          <mxGeometry x="1822" y="516" width="160" height="120" as="geometry" />
        </mxCell>
        <mxCell id="aesqJSntFiqOSr08x3zS-128" value="" style="shape=tableRow;horizontal=0;startSize=0;swimlaneHead=0;swimlaneBody=0;fillColor=#dae8fc;collapsible=0;dropTarget=0;points=[[0,0.5],[1,0.5]];portConstraint=eastwest;strokeColor=#6c8ebf;top=0;left=0;right=0;bottom=0;" parent="aesqJSntFiqOSr08x3zS-127" vertex="1">
          <mxGeometry y="30" width="160" height="30" as="geometry" />
        </mxCell>
        <mxCell id="aesqJSntFiqOSr08x3zS-129" value="" style="shape=partialRectangle;overflow=hidden;connectable=0;fillColor=#dae8fc;strokeColor=#6c8ebf;top=0;left=0;bottom=0;right=0;" parent="aesqJSntFiqOSr08x3zS-128" vertex="1">
          <mxGeometry width="30" height="30" as="geometry">
            <mxRectangle width="30" height="30" as="alternateBounds" />
          </mxGeometry>
        </mxCell>
        <mxCell id="aesqJSntFiqOSr08x3zS-130" value="业态ID" style="shape=partialRectangle;overflow=hidden;connectable=0;fillColor=#dae8fc;align=left;strokeColor=#6c8ebf;top=0;left=0;bottom=0;right=0;spacingLeft=6;" parent="aesqJSntFiqOSr08x3zS-128" vertex="1">
          <mxGeometry x="30" width="130" height="30" as="geometry">
            <mxRectangle width="130" height="30" as="alternateBounds" />
          </mxGeometry>
        </mxCell>
        <mxCell id="aesqJSntFiqOSr08x3zS-131" value="" style="shape=tableRow;horizontal=0;startSize=0;swimlaneHead=0;swimlaneBody=0;fillColor=#dae8fc;collapsible=0;dropTarget=0;points=[[0,0.5],[1,0.5]];portConstraint=eastwest;strokeColor=#6c8ebf;top=0;left=0;right=0;bottom=0;" parent="aesqJSntFiqOSr08x3zS-127" vertex="1">
          <mxGeometry y="60" width="160" height="30" as="geometry" />
        </mxCell>
        <mxCell id="aesqJSntFiqOSr08x3zS-132" value="" style="shape=partialRectangle;overflow=hidden;connectable=0;fillColor=#dae8fc;strokeColor=#6c8ebf;top=0;left=0;bottom=0;right=0;" parent="aesqJSntFiqOSr08x3zS-131" vertex="1">
          <mxGeometry width="30" height="30" as="geometry">
            <mxRectangle width="30" height="30" as="alternateBounds" />
          </mxGeometry>
        </mxCell>
        <mxCell id="aesqJSntFiqOSr08x3zS-133" value="业态编码" style="shape=partialRectangle;overflow=hidden;connectable=0;fillColor=#dae8fc;align=left;strokeColor=#6c8ebf;top=0;left=0;bottom=0;right=0;spacingLeft=6;" parent="aesqJSntFiqOSr08x3zS-131" vertex="1">
          <mxGeometry x="30" width="130" height="30" as="geometry">
            <mxRectangle width="130" height="30" as="alternateBounds" />
          </mxGeometry>
        </mxCell>
        <mxCell id="aesqJSntFiqOSr08x3zS-134" value="" style="shape=tableRow;horizontal=0;startSize=0;swimlaneHead=0;swimlaneBody=0;fillColor=#dae8fc;collapsible=0;dropTarget=0;points=[[0,0.5],[1,0.5]];portConstraint=eastwest;strokeColor=#6c8ebf;top=0;left=0;right=0;bottom=0;" parent="aesqJSntFiqOSr08x3zS-127" vertex="1">
          <mxGeometry y="90" width="160" height="30" as="geometry" />
        </mxCell>
        <mxCell id="aesqJSntFiqOSr08x3zS-135" value="" style="shape=partialRectangle;overflow=hidden;connectable=0;fillColor=#dae8fc;strokeColor=#6c8ebf;top=0;left=0;bottom=0;right=0;" parent="aesqJSntFiqOSr08x3zS-134" vertex="1">
          <mxGeometry width="30" height="30" as="geometry">
            <mxRectangle width="30" height="30" as="alternateBounds" />
          </mxGeometry>
        </mxCell>
        <mxCell id="aesqJSntFiqOSr08x3zS-136" value="业态名称" style="shape=partialRectangle;overflow=hidden;connectable=0;fillColor=#dae8fc;align=left;strokeColor=#6c8ebf;top=0;left=0;bottom=0;right=0;spacingLeft=6;" parent="aesqJSntFiqOSr08x3zS-134" vertex="1">
          <mxGeometry x="30" width="130" height="30" as="geometry">
            <mxRectangle width="130" height="30" as="alternateBounds" />
          </mxGeometry>
        </mxCell>
        <mxCell id="aesqJSntFiqOSr08x3zS-137" value="【ERP】户型数据同步中间表" style="shape=table;startSize=30;container=1;collapsible=1;childLayout=tableLayout;fixedRows=1;rowLines=0;fontStyle=1;align=center;resizeLast=1;fillColor=#dae8fc;strokeColor=#6c8ebf;" parent="1" vertex="1">
          <mxGeometry x="1819.21" y="705" width="165.58343505859386" height="210" as="geometry" />
        </mxCell>
        <mxCell id="aesqJSntFiqOSr08x3zS-138" value="" style="shape=tableRow;horizontal=0;startSize=0;swimlaneHead=0;swimlaneBody=0;fillColor=#dae8fc;collapsible=0;dropTarget=0;points=[[0,0.5],[1,0.5]];portConstraint=eastwest;strokeColor=#6c8ebf;top=0;left=0;right=0;bottom=0;" parent="aesqJSntFiqOSr08x3zS-137" vertex="1">
          <mxGeometry y="30" width="165.58343505859386" height="30" as="geometry" />
        </mxCell>
        <mxCell id="aesqJSntFiqOSr08x3zS-139" value="" style="shape=partialRectangle;overflow=hidden;connectable=0;fillColor=#dae8fc;strokeColor=#6c8ebf;top=0;left=0;bottom=0;right=0;" parent="aesqJSntFiqOSr08x3zS-138" vertex="1">
          <mxGeometry width="30" height="30" as="geometry">
            <mxRectangle width="30" height="30" as="alternateBounds" />
          </mxGeometry>
        </mxCell>
        <mxCell id="aesqJSntFiqOSr08x3zS-140" value="户型ID" style="shape=partialRectangle;overflow=hidden;connectable=0;fillColor=#dae8fc;align=left;strokeColor=#6c8ebf;top=0;left=0;bottom=0;right=0;spacingLeft=6;" parent="aesqJSntFiqOSr08x3zS-138" vertex="1">
          <mxGeometry x="30" width="135.58343505859386" height="30" as="geometry">
            <mxRectangle width="135.58343505859386" height="30" as="alternateBounds" />
          </mxGeometry>
        </mxCell>
        <mxCell id="aesqJSntFiqOSr08x3zS-141" value="" style="shape=tableRow;horizontal=0;startSize=0;swimlaneHead=0;swimlaneBody=0;fillColor=#dae8fc;collapsible=0;dropTarget=0;points=[[0,0.5],[1,0.5]];portConstraint=eastwest;strokeColor=#6c8ebf;top=0;left=0;right=0;bottom=0;" parent="aesqJSntFiqOSr08x3zS-137" vertex="1">
          <mxGeometry y="60" width="165.58343505859386" height="30" as="geometry" />
        </mxCell>
        <mxCell id="aesqJSntFiqOSr08x3zS-142" value="" style="shape=partialRectangle;overflow=hidden;connectable=0;fillColor=#dae8fc;strokeColor=#6c8ebf;top=0;left=0;bottom=0;right=0;" parent="aesqJSntFiqOSr08x3zS-141" vertex="1">
          <mxGeometry width="30" height="30" as="geometry">
            <mxRectangle width="30" height="30" as="alternateBounds" />
          </mxGeometry>
        </mxCell>
        <mxCell id="aesqJSntFiqOSr08x3zS-143" value="户型名称" style="shape=partialRectangle;overflow=hidden;connectable=0;fillColor=#dae8fc;align=left;strokeColor=#6c8ebf;top=0;left=0;bottom=0;right=0;spacingLeft=6;" parent="aesqJSntFiqOSr08x3zS-141" vertex="1">
          <mxGeometry x="30" width="135.58343505859386" height="30" as="geometry">
            <mxRectangle width="135.58343505859386" height="30" as="alternateBounds" />
          </mxGeometry>
        </mxCell>
        <mxCell id="aesqJSntFiqOSr08x3zS-144" value="" style="shape=tableRow;horizontal=0;startSize=0;swimlaneHead=0;swimlaneBody=0;fillColor=#dae8fc;collapsible=0;dropTarget=0;points=[[0,0.5],[1,0.5]];portConstraint=eastwest;strokeColor=#6c8ebf;top=0;left=0;right=0;bottom=0;" parent="aesqJSntFiqOSr08x3zS-137" vertex="1">
          <mxGeometry y="90" width="165.58343505859386" height="30" as="geometry" />
        </mxCell>
        <mxCell id="aesqJSntFiqOSr08x3zS-145" value="" style="shape=partialRectangle;overflow=hidden;connectable=0;fillColor=#dae8fc;strokeColor=#6c8ebf;top=0;left=0;bottom=0;right=0;" parent="aesqJSntFiqOSr08x3zS-144" vertex="1">
          <mxGeometry width="30" height="30" as="geometry">
            <mxRectangle width="30" height="30" as="alternateBounds" />
          </mxGeometry>
        </mxCell>
        <mxCell id="aesqJSntFiqOSr08x3zS-146" value="法人公司编码" style="shape=partialRectangle;overflow=hidden;connectable=0;fillColor=#dae8fc;align=left;strokeColor=#6c8ebf;top=0;left=0;bottom=0;right=0;spacingLeft=6;" parent="aesqJSntFiqOSr08x3zS-144" vertex="1">
          <mxGeometry x="30" width="135.58343505859386" height="30" as="geometry">
            <mxRectangle width="135.58343505859386" height="30" as="alternateBounds" />
          </mxGeometry>
        </mxCell>
        <mxCell id="aesqJSntFiqOSr08x3zS-147" value="" style="shape=tableRow;horizontal=0;startSize=0;swimlaneHead=0;swimlaneBody=0;fillColor=#dae8fc;collapsible=0;dropTarget=0;points=[[0,0.5],[1,0.5]];portConstraint=eastwest;strokeColor=#6c8ebf;top=0;left=0;right=0;bottom=0;" parent="aesqJSntFiqOSr08x3zS-137" vertex="1">
          <mxGeometry y="120" width="165.58343505859386" height="30" as="geometry" />
        </mxCell>
        <mxCell id="aesqJSntFiqOSr08x3zS-148" value="" style="shape=partialRectangle;overflow=hidden;connectable=0;fillColor=#dae8fc;strokeColor=#6c8ebf;top=0;left=0;bottom=0;right=0;" parent="aesqJSntFiqOSr08x3zS-147" vertex="1">
          <mxGeometry width="30" height="30" as="geometry">
            <mxRectangle width="30" height="30" as="alternateBounds" />
          </mxGeometry>
        </mxCell>
        <mxCell id="aesqJSntFiqOSr08x3zS-149" value="项目ID" style="shape=partialRectangle;overflow=hidden;connectable=0;fillColor=#dae8fc;align=left;strokeColor=#6c8ebf;top=0;left=0;bottom=0;right=0;spacingLeft=6;" parent="aesqJSntFiqOSr08x3zS-147" vertex="1">
          <mxGeometry x="30" width="135.58343505859386" height="30" as="geometry">
            <mxRectangle width="135.58343505859386" height="30" as="alternateBounds" />
          </mxGeometry>
        </mxCell>
        <mxCell id="aesqJSntFiqOSr08x3zS-150" value="" style="shape=tableRow;horizontal=0;startSize=0;swimlaneHead=0;swimlaneBody=0;fillColor=#dae8fc;collapsible=0;dropTarget=0;points=[[0,0.5],[1,0.5]];portConstraint=eastwest;strokeColor=#6c8ebf;top=0;left=0;right=0;bottom=0;" parent="aesqJSntFiqOSr08x3zS-137" vertex="1">
          <mxGeometry y="150" width="165.58343505859386" height="30" as="geometry" />
        </mxCell>
        <mxCell id="aesqJSntFiqOSr08x3zS-151" value="" style="shape=partialRectangle;overflow=hidden;connectable=0;fillColor=#dae8fc;strokeColor=#6c8ebf;top=0;left=0;bottom=0;right=0;" parent="aesqJSntFiqOSr08x3zS-150" vertex="1">
          <mxGeometry width="30" height="30" as="geometry">
            <mxRectangle width="30" height="30" as="alternateBounds" />
          </mxGeometry>
        </mxCell>
        <mxCell id="aesqJSntFiqOSr08x3zS-152" value="X室X厅X卫" style="shape=partialRectangle;overflow=hidden;connectable=0;fillColor=#dae8fc;align=left;strokeColor=#6c8ebf;top=0;left=0;bottom=0;right=0;spacingLeft=6;" parent="aesqJSntFiqOSr08x3zS-150" vertex="1">
          <mxGeometry x="30" width="135.58343505859386" height="30" as="geometry">
            <mxRectangle width="135.58343505859386" height="30" as="alternateBounds" />
          </mxGeometry>
        </mxCell>
        <mxCell id="aesqJSntFiqOSr08x3zS-153" value="" style="shape=tableRow;horizontal=0;startSize=0;swimlaneHead=0;swimlaneBody=0;fillColor=#dae8fc;collapsible=0;dropTarget=0;points=[[0,0.5],[1,0.5]];portConstraint=eastwest;strokeColor=#6c8ebf;top=0;left=0;right=0;bottom=0;" parent="aesqJSntFiqOSr08x3zS-137" vertex="1">
          <mxGeometry y="180" width="165.58343505859386" height="30" as="geometry" />
        </mxCell>
        <mxCell id="aesqJSntFiqOSr08x3zS-154" value="" style="shape=partialRectangle;overflow=hidden;connectable=0;fillColor=#dae8fc;strokeColor=#6c8ebf;top=0;left=0;bottom=0;right=0;" parent="aesqJSntFiqOSr08x3zS-153" vertex="1">
          <mxGeometry width="30" height="30" as="geometry">
            <mxRectangle width="30" height="30" as="alternateBounds" />
          </mxGeometry>
        </mxCell>
        <mxCell id="aesqJSntFiqOSr08x3zS-155" value="面积段" style="shape=partialRectangle;overflow=hidden;connectable=0;fillColor=#dae8fc;align=left;strokeColor=#6c8ebf;top=0;left=0;bottom=0;right=0;spacingLeft=6;" parent="aesqJSntFiqOSr08x3zS-153" vertex="1">
          <mxGeometry x="30" width="135.58343505859386" height="30" as="geometry">
            <mxRectangle width="135.58343505859386" height="30" as="alternateBounds" />
          </mxGeometry>
        </mxCell>
        <mxCell id="aesqJSntFiqOSr08x3zS-156" value="【ERP】项目数据同步中间表" style="shape=table;startSize=30;container=1;collapsible=1;childLayout=tableLayout;fixedRows=1;rowLines=0;fontStyle=1;align=center;resizeLast=1;fillColor=#dae8fc;strokeColor=#6c8ebf;" parent="1" vertex="1">
          <mxGeometry x="659" y="516" width="171.58343505859375" height="210" as="geometry" />
        </mxCell>
        <mxCell id="aesqJSntFiqOSr08x3zS-157" value="" style="shape=tableRow;horizontal=0;startSize=0;swimlaneHead=0;swimlaneBody=0;fillColor=#dae8fc;collapsible=0;dropTarget=0;points=[[0,0.5],[1,0.5]];portConstraint=eastwest;strokeColor=#6c8ebf;top=0;left=0;right=0;bottom=0;" parent="aesqJSntFiqOSr08x3zS-156" vertex="1">
          <mxGeometry y="30" width="171.58343505859375" height="30" as="geometry" />
        </mxCell>
        <mxCell id="aesqJSntFiqOSr08x3zS-158" value="" style="shape=partialRectangle;overflow=hidden;connectable=0;fillColor=#dae8fc;strokeColor=#6c8ebf;top=0;left=0;bottom=0;right=0;" parent="aesqJSntFiqOSr08x3zS-157" vertex="1">
          <mxGeometry width="30" height="30" as="geometry">
            <mxRectangle width="30" height="30" as="alternateBounds" />
          </mxGeometry>
        </mxCell>
        <mxCell id="aesqJSntFiqOSr08x3zS-159" value="项目ID" style="shape=partialRectangle;overflow=hidden;connectable=0;fillColor=#dae8fc;align=left;strokeColor=#6c8ebf;top=0;left=0;bottom=0;right=0;spacingLeft=6;" parent="aesqJSntFiqOSr08x3zS-157" vertex="1">
          <mxGeometry x="30" width="141.58343505859375" height="30" as="geometry">
            <mxRectangle width="141.58343505859375" height="30" as="alternateBounds" />
          </mxGeometry>
        </mxCell>
        <mxCell id="aesqJSntFiqOSr08x3zS-160" value="" style="shape=tableRow;horizontal=0;startSize=0;swimlaneHead=0;swimlaneBody=0;fillColor=#dae8fc;collapsible=0;dropTarget=0;points=[[0,0.5],[1,0.5]];portConstraint=eastwest;strokeColor=#6c8ebf;top=0;left=0;right=0;bottom=0;" parent="aesqJSntFiqOSr08x3zS-156" vertex="1">
          <mxGeometry y="60" width="171.58343505859375" height="30" as="geometry" />
        </mxCell>
        <mxCell id="aesqJSntFiqOSr08x3zS-161" value="" style="shape=partialRectangle;overflow=hidden;connectable=0;fillColor=#dae8fc;strokeColor=#6c8ebf;top=0;left=0;bottom=0;right=0;" parent="aesqJSntFiqOSr08x3zS-160" vertex="1">
          <mxGeometry width="30" height="30" as="geometry">
            <mxRectangle width="30" height="30" as="alternateBounds" />
          </mxGeometry>
        </mxCell>
        <mxCell id="aesqJSntFiqOSr08x3zS-162" value="项目内码" style="shape=partialRectangle;overflow=hidden;connectable=0;fillColor=#dae8fc;align=left;strokeColor=#6c8ebf;top=0;left=0;bottom=0;right=0;spacingLeft=6;" parent="aesqJSntFiqOSr08x3zS-160" vertex="1">
          <mxGeometry x="30" width="141.58343505859375" height="30" as="geometry">
            <mxRectangle width="141.58343505859375" height="30" as="alternateBounds" />
          </mxGeometry>
        </mxCell>
        <mxCell id="aesqJSntFiqOSr08x3zS-163" value="" style="shape=tableRow;horizontal=0;startSize=0;swimlaneHead=0;swimlaneBody=0;fillColor=#dae8fc;collapsible=0;dropTarget=0;points=[[0,0.5],[1,0.5]];portConstraint=eastwest;strokeColor=#6c8ebf;top=0;left=0;right=0;bottom=0;" parent="aesqJSntFiqOSr08x3zS-156" vertex="1">
          <mxGeometry y="90" width="171.58343505859375" height="30" as="geometry" />
        </mxCell>
        <mxCell id="aesqJSntFiqOSr08x3zS-164" value="" style="shape=partialRectangle;overflow=hidden;connectable=0;fillColor=#dae8fc;strokeColor=#6c8ebf;top=0;left=0;bottom=0;right=0;" parent="aesqJSntFiqOSr08x3zS-163" vertex="1">
          <mxGeometry width="30" height="30" as="geometry">
            <mxRectangle width="30" height="30" as="alternateBounds" />
          </mxGeometry>
        </mxCell>
        <mxCell id="aesqJSntFiqOSr08x3zS-165" value="内部项目名称" style="shape=partialRectangle;overflow=hidden;connectable=0;fillColor=#dae8fc;align=left;strokeColor=#6c8ebf;top=0;left=0;bottom=0;right=0;spacingLeft=6;" parent="aesqJSntFiqOSr08x3zS-163" vertex="1">
          <mxGeometry x="30" width="141.58343505859375" height="30" as="geometry">
            <mxRectangle width="141.58343505859375" height="30" as="alternateBounds" />
          </mxGeometry>
        </mxCell>
        <mxCell id="aesqJSntFiqOSr08x3zS-166" value="" style="shape=tableRow;horizontal=0;startSize=0;swimlaneHead=0;swimlaneBody=0;fillColor=#dae8fc;collapsible=0;dropTarget=0;points=[[0,0.5],[1,0.5]];portConstraint=eastwest;strokeColor=#6c8ebf;top=0;left=0;right=0;bottom=0;" parent="aesqJSntFiqOSr08x3zS-156" vertex="1">
          <mxGeometry y="120" width="171.58343505859375" height="30" as="geometry" />
        </mxCell>
        <mxCell id="aesqJSntFiqOSr08x3zS-167" value="" style="shape=partialRectangle;overflow=hidden;connectable=0;fillColor=#dae8fc;strokeColor=#6c8ebf;top=0;left=0;bottom=0;right=0;" parent="aesqJSntFiqOSr08x3zS-166" vertex="1">
          <mxGeometry width="30" height="30" as="geometry">
            <mxRectangle width="30" height="30" as="alternateBounds" />
          </mxGeometry>
        </mxCell>
        <mxCell id="aesqJSntFiqOSr08x3zS-168" value="法人公司编码" style="shape=partialRectangle;overflow=hidden;connectable=0;fillColor=#dae8fc;align=left;strokeColor=#6c8ebf;top=0;left=0;bottom=0;right=0;spacingLeft=6;" parent="aesqJSntFiqOSr08x3zS-166" vertex="1">
          <mxGeometry x="30" width="141.58343505859375" height="30" as="geometry">
            <mxRectangle width="141.58343505859375" height="30" as="alternateBounds" />
          </mxGeometry>
        </mxCell>
        <mxCell id="aesqJSntFiqOSr08x3zS-169" value="" style="shape=tableRow;horizontal=0;startSize=0;swimlaneHead=0;swimlaneBody=0;fillColor=#dae8fc;collapsible=0;dropTarget=0;points=[[0,0.5],[1,0.5]];portConstraint=eastwest;strokeColor=#6c8ebf;top=0;left=0;right=0;bottom=0;" parent="aesqJSntFiqOSr08x3zS-156" vertex="1">
          <mxGeometry y="150" width="171.58343505859375" height="30" as="geometry" />
        </mxCell>
        <mxCell id="aesqJSntFiqOSr08x3zS-170" value="" style="shape=partialRectangle;overflow=hidden;connectable=0;fillColor=#dae8fc;strokeColor=#6c8ebf;top=0;left=0;bottom=0;right=0;" parent="aesqJSntFiqOSr08x3zS-169" vertex="1">
          <mxGeometry width="30" height="30" as="geometry">
            <mxRectangle width="30" height="30" as="alternateBounds" />
          </mxGeometry>
        </mxCell>
        <mxCell id="aesqJSntFiqOSr08x3zS-171" value="项目报建名" style="shape=partialRectangle;overflow=hidden;connectable=0;fillColor=#dae8fc;align=left;strokeColor=#6c8ebf;top=0;left=0;bottom=0;right=0;spacingLeft=6;" parent="aesqJSntFiqOSr08x3zS-169" vertex="1">
          <mxGeometry x="30" width="141.58343505859375" height="30" as="geometry">
            <mxRectangle width="141.58343505859375" height="30" as="alternateBounds" />
          </mxGeometry>
        </mxCell>
        <mxCell id="aesqJSntFiqOSr08x3zS-172" value="" style="shape=tableRow;horizontal=0;startSize=0;swimlaneHead=0;swimlaneBody=0;fillColor=#dae8fc;collapsible=0;dropTarget=0;points=[[0,0.5],[1,0.5]];portConstraint=eastwest;strokeColor=#6c8ebf;top=0;left=0;right=0;bottom=0;" parent="aesqJSntFiqOSr08x3zS-156" vertex="1">
          <mxGeometry y="180" width="171.58343505859375" height="30" as="geometry" />
        </mxCell>
        <mxCell id="aesqJSntFiqOSr08x3zS-173" value="" style="shape=partialRectangle;overflow=hidden;connectable=0;fillColor=#dae8fc;strokeColor=#6c8ebf;top=0;left=0;bottom=0;right=0;" parent="aesqJSntFiqOSr08x3zS-172" vertex="1">
          <mxGeometry width="30" height="30" as="geometry">
            <mxRectangle width="30" height="30" as="alternateBounds" />
          </mxGeometry>
        </mxCell>
        <mxCell id="aesqJSntFiqOSr08x3zS-174" value="同步标识" style="shape=partialRectangle;overflow=hidden;connectable=0;fillColor=#dae8fc;align=left;strokeColor=#6c8ebf;top=0;left=0;bottom=0;right=0;spacingLeft=6;" parent="aesqJSntFiqOSr08x3zS-172" vertex="1">
          <mxGeometry x="30" width="141.58343505859375" height="30" as="geometry">
            <mxRectangle width="141.58343505859375" height="30" as="alternateBounds" />
          </mxGeometry>
        </mxCell>
        <mxCell id="aesqJSntFiqOSr08x3zS-175" value="【ERP】分期数据同步中间表" style="shape=table;startSize=30;container=1;collapsible=1;childLayout=tableLayout;fixedRows=1;rowLines=0;fontStyle=1;align=center;resizeLast=1;fillColor=#dae8fc;strokeColor=#6c8ebf;" parent="1" vertex="1">
          <mxGeometry x="935" y="516" width="175" height="180" as="geometry" />
        </mxCell>
        <mxCell id="aesqJSntFiqOSr08x3zS-176" value="" style="shape=tableRow;horizontal=0;startSize=0;swimlaneHead=0;swimlaneBody=0;fillColor=#dae8fc;collapsible=0;dropTarget=0;points=[[0,0.5],[1,0.5]];portConstraint=eastwest;strokeColor=#6c8ebf;top=0;left=0;right=0;bottom=0;" parent="aesqJSntFiqOSr08x3zS-175" vertex="1">
          <mxGeometry y="30" width="175" height="30" as="geometry" />
        </mxCell>
        <mxCell id="aesqJSntFiqOSr08x3zS-177" value="" style="shape=partialRectangle;overflow=hidden;connectable=0;fillColor=#dae8fc;strokeColor=#6c8ebf;top=0;left=0;bottom=0;right=0;" parent="aesqJSntFiqOSr08x3zS-176" vertex="1">
          <mxGeometry width="30" height="30" as="geometry">
            <mxRectangle width="30" height="30" as="alternateBounds" />
          </mxGeometry>
        </mxCell>
        <mxCell id="aesqJSntFiqOSr08x3zS-178" value="分期ID" style="shape=partialRectangle;overflow=hidden;connectable=0;fillColor=#dae8fc;align=left;strokeColor=#6c8ebf;top=0;left=0;bottom=0;right=0;spacingLeft=6;" parent="aesqJSntFiqOSr08x3zS-176" vertex="1">
          <mxGeometry x="30" width="145" height="30" as="geometry">
            <mxRectangle width="145" height="30" as="alternateBounds" />
          </mxGeometry>
        </mxCell>
        <mxCell id="aesqJSntFiqOSr08x3zS-179" value="" style="shape=tableRow;horizontal=0;startSize=0;swimlaneHead=0;swimlaneBody=0;fillColor=#dae8fc;collapsible=0;dropTarget=0;points=[[0,0.5],[1,0.5]];portConstraint=eastwest;strokeColor=#6c8ebf;top=0;left=0;right=0;bottom=0;" parent="aesqJSntFiqOSr08x3zS-175" vertex="1">
          <mxGeometry y="60" width="175" height="30" as="geometry" />
        </mxCell>
        <mxCell id="aesqJSntFiqOSr08x3zS-180" value="" style="shape=partialRectangle;overflow=hidden;connectable=0;fillColor=#dae8fc;strokeColor=#6c8ebf;top=0;left=0;bottom=0;right=0;" parent="aesqJSntFiqOSr08x3zS-179" vertex="1">
          <mxGeometry width="30" height="30" as="geometry">
            <mxRectangle width="30" height="30" as="alternateBounds" />
          </mxGeometry>
        </mxCell>
        <mxCell id="aesqJSntFiqOSr08x3zS-181" value="分期内码" style="shape=partialRectangle;overflow=hidden;connectable=0;fillColor=#dae8fc;align=left;strokeColor=#6c8ebf;top=0;left=0;bottom=0;right=0;spacingLeft=6;" parent="aesqJSntFiqOSr08x3zS-179" vertex="1">
          <mxGeometry x="30" width="145" height="30" as="geometry">
            <mxRectangle width="145" height="30" as="alternateBounds" />
          </mxGeometry>
        </mxCell>
        <mxCell id="aesqJSntFiqOSr08x3zS-182" value="" style="shape=tableRow;horizontal=0;startSize=0;swimlaneHead=0;swimlaneBody=0;fillColor=#dae8fc;collapsible=0;dropTarget=0;points=[[0,0.5],[1,0.5]];portConstraint=eastwest;strokeColor=#6c8ebf;top=0;left=0;right=0;bottom=0;" parent="aesqJSntFiqOSr08x3zS-175" vertex="1">
          <mxGeometry y="90" width="175" height="30" as="geometry" />
        </mxCell>
        <mxCell id="aesqJSntFiqOSr08x3zS-183" value="" style="shape=partialRectangle;overflow=hidden;connectable=0;fillColor=#dae8fc;strokeColor=#6c8ebf;top=0;left=0;bottom=0;right=0;" parent="aesqJSntFiqOSr08x3zS-182" vertex="1">
          <mxGeometry width="30" height="30" as="geometry">
            <mxRectangle width="30" height="30" as="alternateBounds" />
          </mxGeometry>
        </mxCell>
        <mxCell id="aesqJSntFiqOSr08x3zS-184" value="分期名称" style="shape=partialRectangle;overflow=hidden;connectable=0;fillColor=#dae8fc;align=left;strokeColor=#6c8ebf;top=0;left=0;bottom=0;right=0;spacingLeft=6;" parent="aesqJSntFiqOSr08x3zS-182" vertex="1">
          <mxGeometry x="30" width="145" height="30" as="geometry">
            <mxRectangle width="145" height="30" as="alternateBounds" />
          </mxGeometry>
        </mxCell>
        <mxCell id="aesqJSntFiqOSr08x3zS-185" value="" style="shape=tableRow;horizontal=0;startSize=0;swimlaneHead=0;swimlaneBody=0;fillColor=#dae8fc;collapsible=0;dropTarget=0;points=[[0,0.5],[1,0.5]];portConstraint=eastwest;strokeColor=#6c8ebf;top=0;left=0;right=0;bottom=0;" parent="aesqJSntFiqOSr08x3zS-175" vertex="1">
          <mxGeometry y="120" width="175" height="30" as="geometry" />
        </mxCell>
        <mxCell id="aesqJSntFiqOSr08x3zS-186" value="" style="shape=partialRectangle;overflow=hidden;connectable=0;fillColor=#dae8fc;strokeColor=#6c8ebf;top=0;left=0;bottom=0;right=0;" parent="aesqJSntFiqOSr08x3zS-185" vertex="1">
          <mxGeometry width="30" height="30" as="geometry">
            <mxRectangle width="30" height="30" as="alternateBounds" />
          </mxGeometry>
        </mxCell>
        <mxCell id="aesqJSntFiqOSr08x3zS-187" value="分期关联项目ID" style="shape=partialRectangle;overflow=hidden;connectable=0;fillColor=#dae8fc;align=left;strokeColor=#6c8ebf;top=0;left=0;bottom=0;right=0;spacingLeft=6;" parent="aesqJSntFiqOSr08x3zS-185" vertex="1">
          <mxGeometry x="30" width="145" height="30" as="geometry">
            <mxRectangle width="145" height="30" as="alternateBounds" />
          </mxGeometry>
        </mxCell>
        <mxCell id="aesqJSntFiqOSr08x3zS-188" value="" style="shape=tableRow;horizontal=0;startSize=0;swimlaneHead=0;swimlaneBody=0;fillColor=#dae8fc;collapsible=0;dropTarget=0;points=[[0,0.5],[1,0.5]];portConstraint=eastwest;strokeColor=#6c8ebf;top=0;left=0;right=0;bottom=0;" parent="aesqJSntFiqOSr08x3zS-175" vertex="1">
          <mxGeometry y="150" width="175" height="30" as="geometry" />
        </mxCell>
        <mxCell id="aesqJSntFiqOSr08x3zS-189" value="" style="shape=partialRectangle;overflow=hidden;connectable=0;fillColor=#dae8fc;strokeColor=#6c8ebf;top=0;left=0;bottom=0;right=0;" parent="aesqJSntFiqOSr08x3zS-188" vertex="1">
          <mxGeometry width="30" height="30" as="geometry">
            <mxRectangle width="30" height="30" as="alternateBounds" />
          </mxGeometry>
        </mxCell>
        <mxCell id="aesqJSntFiqOSr08x3zS-190" value="分期产品/经济指标信息" style="shape=partialRectangle;overflow=hidden;connectable=0;fillColor=#dae8fc;align=left;strokeColor=#6c8ebf;top=0;left=0;bottom=0;right=0;spacingLeft=6;" parent="aesqJSntFiqOSr08x3zS-188" vertex="1">
          <mxGeometry x="30" width="145" height="30" as="geometry">
            <mxRectangle width="145" height="30" as="alternateBounds" />
          </mxGeometry>
        </mxCell>
        <mxCell id="aesqJSntFiqOSr08x3zS-191" value="【ERP】楼栋数据同步中间表" style="shape=table;startSize=30;container=1;collapsible=1;childLayout=tableLayout;fixedRows=1;rowLines=0;fontStyle=1;align=center;resizeLast=1;fillColor=#dae8fc;strokeColor=#6c8ebf;" parent="1" vertex="1">
          <mxGeometry x="1242" y="516" width="180.36114501953148" height="180" as="geometry" />
        </mxCell>
        <mxCell id="aesqJSntFiqOSr08x3zS-192" value="" style="shape=tableRow;horizontal=0;startSize=0;swimlaneHead=0;swimlaneBody=0;fillColor=#dae8fc;collapsible=0;dropTarget=0;points=[[0,0.5],[1,0.5]];portConstraint=eastwest;strokeColor=#6c8ebf;top=0;left=0;right=0;bottom=0;" parent="aesqJSntFiqOSr08x3zS-191" vertex="1">
          <mxGeometry y="30" width="180.36114501953148" height="30" as="geometry" />
        </mxCell>
        <mxCell id="aesqJSntFiqOSr08x3zS-193" value="" style="shape=partialRectangle;overflow=hidden;connectable=0;fillColor=#dae8fc;strokeColor=#6c8ebf;top=0;left=0;bottom=0;right=0;" parent="aesqJSntFiqOSr08x3zS-192" vertex="1">
          <mxGeometry width="30" height="30" as="geometry">
            <mxRectangle width="30" height="30" as="alternateBounds" />
          </mxGeometry>
        </mxCell>
        <mxCell id="aesqJSntFiqOSr08x3zS-194" value="楼栋ID" style="shape=partialRectangle;overflow=hidden;connectable=0;fillColor=#dae8fc;align=left;strokeColor=#6c8ebf;top=0;left=0;bottom=0;right=0;spacingLeft=6;" parent="aesqJSntFiqOSr08x3zS-192" vertex="1">
          <mxGeometry x="30" width="150.36114501953148" height="30" as="geometry">
            <mxRectangle width="150.36114501953148" height="30" as="alternateBounds" />
          </mxGeometry>
        </mxCell>
        <mxCell id="aesqJSntFiqOSr08x3zS-195" value="" style="shape=tableRow;horizontal=0;startSize=0;swimlaneHead=0;swimlaneBody=0;fillColor=#dae8fc;collapsible=0;dropTarget=0;points=[[0,0.5],[1,0.5]];portConstraint=eastwest;strokeColor=#6c8ebf;top=0;left=0;right=0;bottom=0;" parent="aesqJSntFiqOSr08x3zS-191" vertex="1">
          <mxGeometry y="60" width="180.36114501953148" height="30" as="geometry" />
        </mxCell>
        <mxCell id="aesqJSntFiqOSr08x3zS-196" value="" style="shape=partialRectangle;overflow=hidden;connectable=0;fillColor=#dae8fc;strokeColor=#6c8ebf;top=0;left=0;bottom=0;right=0;" parent="aesqJSntFiqOSr08x3zS-195" vertex="1">
          <mxGeometry width="30" height="30" as="geometry">
            <mxRectangle width="30" height="30" as="alternateBounds" />
          </mxGeometry>
        </mxCell>
        <mxCell id="aesqJSntFiqOSr08x3zS-197" value="楼栋内码" style="shape=partialRectangle;overflow=hidden;connectable=0;fillColor=#dae8fc;align=left;strokeColor=#6c8ebf;top=0;left=0;bottom=0;right=0;spacingLeft=6;" parent="aesqJSntFiqOSr08x3zS-195" vertex="1">
          <mxGeometry x="30" width="150.36114501953148" height="30" as="geometry">
            <mxRectangle width="150.36114501953148" height="30" as="alternateBounds" />
          </mxGeometry>
        </mxCell>
        <mxCell id="aesqJSntFiqOSr08x3zS-198" value="" style="shape=tableRow;horizontal=0;startSize=0;swimlaneHead=0;swimlaneBody=0;fillColor=#dae8fc;collapsible=0;dropTarget=0;points=[[0,0.5],[1,0.5]];portConstraint=eastwest;strokeColor=#6c8ebf;top=0;left=0;right=0;bottom=0;" parent="aesqJSntFiqOSr08x3zS-191" vertex="1">
          <mxGeometry y="90" width="180.36114501953148" height="30" as="geometry" />
        </mxCell>
        <mxCell id="aesqJSntFiqOSr08x3zS-199" value="" style="shape=partialRectangle;overflow=hidden;connectable=0;fillColor=#dae8fc;strokeColor=#6c8ebf;top=0;left=0;bottom=0;right=0;" parent="aesqJSntFiqOSr08x3zS-198" vertex="1">
          <mxGeometry width="30" height="30" as="geometry">
            <mxRectangle width="30" height="30" as="alternateBounds" />
          </mxGeometry>
        </mxCell>
        <mxCell id="aesqJSntFiqOSr08x3zS-200" value="楼栋名" style="shape=partialRectangle;overflow=hidden;connectable=0;fillColor=#dae8fc;align=left;strokeColor=#6c8ebf;top=0;left=0;bottom=0;right=0;spacingLeft=6;" parent="aesqJSntFiqOSr08x3zS-198" vertex="1">
          <mxGeometry x="30" width="150.36114501953148" height="30" as="geometry">
            <mxRectangle width="150.36114501953148" height="30" as="alternateBounds" />
          </mxGeometry>
        </mxCell>
        <mxCell id="aesqJSntFiqOSr08x3zS-201" value="" style="shape=tableRow;horizontal=0;startSize=0;swimlaneHead=0;swimlaneBody=0;fillColor=#dae8fc;collapsible=0;dropTarget=0;points=[[0,0.5],[1,0.5]];portConstraint=eastwest;strokeColor=#6c8ebf;top=0;left=0;right=0;bottom=0;" parent="aesqJSntFiqOSr08x3zS-191" vertex="1">
          <mxGeometry y="120" width="180.36114501953148" height="30" as="geometry" />
        </mxCell>
        <mxCell id="aesqJSntFiqOSr08x3zS-202" value="" style="shape=partialRectangle;overflow=hidden;connectable=0;fillColor=#dae8fc;strokeColor=#6c8ebf;top=0;left=0;bottom=0;right=0;" parent="aesqJSntFiqOSr08x3zS-201" vertex="1">
          <mxGeometry width="30" height="30" as="geometry">
            <mxRectangle width="30" height="30" as="alternateBounds" />
          </mxGeometry>
        </mxCell>
        <mxCell id="aesqJSntFiqOSr08x3zS-203" value="楼栋关联分期ID" style="shape=partialRectangle;overflow=hidden;connectable=0;fillColor=#dae8fc;align=left;strokeColor=#6c8ebf;top=0;left=0;bottom=0;right=0;spacingLeft=6;" parent="aesqJSntFiqOSr08x3zS-201" vertex="1">
          <mxGeometry x="30" width="150.36114501953148" height="30" as="geometry">
            <mxRectangle width="150.36114501953148" height="30" as="alternateBounds" />
          </mxGeometry>
        </mxCell>
        <mxCell id="aesqJSntFiqOSr08x3zS-204" value="" style="shape=tableRow;horizontal=0;startSize=0;swimlaneHead=0;swimlaneBody=0;fillColor=#dae8fc;collapsible=0;dropTarget=0;points=[[0,0.5],[1,0.5]];portConstraint=eastwest;strokeColor=#6c8ebf;top=0;left=0;right=0;bottom=0;" parent="aesqJSntFiqOSr08x3zS-191" vertex="1">
          <mxGeometry y="150" width="180.36114501953148" height="30" as="geometry" />
        </mxCell>
        <mxCell id="aesqJSntFiqOSr08x3zS-205" value="" style="shape=partialRectangle;overflow=hidden;connectable=0;fillColor=#dae8fc;strokeColor=#6c8ebf;top=0;left=0;bottom=0;right=0;" parent="aesqJSntFiqOSr08x3zS-204" vertex="1">
          <mxGeometry width="30" height="30" as="geometry">
            <mxRectangle width="30" height="30" as="alternateBounds" />
          </mxGeometry>
        </mxCell>
        <mxCell id="aesqJSntFiqOSr08x3zS-206" value="楼栋关联项目ID" style="shape=partialRectangle;overflow=hidden;connectable=0;fillColor=#dae8fc;align=left;strokeColor=#6c8ebf;top=0;left=0;bottom=0;right=0;spacingLeft=6;" parent="aesqJSntFiqOSr08x3zS-204" vertex="1">
          <mxGeometry x="30" width="150.36114501953148" height="30" as="geometry">
            <mxRectangle width="150.36114501953148" height="30" as="alternateBounds" />
          </mxGeometry>
        </mxCell>
        <mxCell id="aesqJSntFiqOSr08x3zS-207" value="【ERP】房间数据同步中间表" style="shape=table;startSize=30;container=1;collapsible=1;childLayout=tableLayout;fixedRows=1;rowLines=0;fontStyle=1;align=center;resizeLast=1;fillColor=#dae8fc;strokeColor=#6c8ebf;" parent="1" vertex="1">
          <mxGeometry x="1553" y="516" width="160" height="480" as="geometry" />
        </mxCell>
        <mxCell id="aesqJSntFiqOSr08x3zS-208" value="" style="shape=tableRow;horizontal=0;startSize=0;swimlaneHead=0;swimlaneBody=0;fillColor=#dae8fc;collapsible=0;dropTarget=0;points=[[0,0.5],[1,0.5]];portConstraint=eastwest;strokeColor=#6c8ebf;top=0;left=0;right=0;bottom=0;" parent="aesqJSntFiqOSr08x3zS-207" vertex="1">
          <mxGeometry y="30" width="160" height="30" as="geometry" />
        </mxCell>
        <mxCell id="aesqJSntFiqOSr08x3zS-209" value="" style="shape=partialRectangle;overflow=hidden;connectable=0;fillColor=#dae8fc;strokeColor=#6c8ebf;top=0;left=0;bottom=0;right=0;" parent="aesqJSntFiqOSr08x3zS-208" vertex="1">
          <mxGeometry width="30" height="30" as="geometry">
            <mxRectangle width="30" height="30" as="alternateBounds" />
          </mxGeometry>
        </mxCell>
        <mxCell id="aesqJSntFiqOSr08x3zS-210" value="房间ID" style="shape=partialRectangle;overflow=hidden;connectable=0;fillColor=#dae8fc;align=left;strokeColor=#6c8ebf;top=0;left=0;bottom=0;right=0;spacingLeft=6;" parent="aesqJSntFiqOSr08x3zS-208" vertex="1">
          <mxGeometry x="30" width="130" height="30" as="geometry">
            <mxRectangle width="130" height="30" as="alternateBounds" />
          </mxGeometry>
        </mxCell>
        <mxCell id="aesqJSntFiqOSr08x3zS-211" value="" style="shape=tableRow;horizontal=0;startSize=0;swimlaneHead=0;swimlaneBody=0;fillColor=#dae8fc;collapsible=0;dropTarget=0;points=[[0,0.5],[1,0.5]];portConstraint=eastwest;strokeColor=#6c8ebf;top=0;left=0;right=0;bottom=0;" parent="aesqJSntFiqOSr08x3zS-207" vertex="1">
          <mxGeometry y="60" width="160" height="30" as="geometry" />
        </mxCell>
        <mxCell id="aesqJSntFiqOSr08x3zS-212" value="" style="shape=partialRectangle;overflow=hidden;connectable=0;fillColor=#dae8fc;strokeColor=#6c8ebf;top=0;left=0;bottom=0;right=0;" parent="aesqJSntFiqOSr08x3zS-211" vertex="1">
          <mxGeometry width="30" height="30" as="geometry">
            <mxRectangle width="30" height="30" as="alternateBounds" />
          </mxGeometry>
        </mxCell>
        <mxCell id="aesqJSntFiqOSr08x3zS-213" value="房间名" style="shape=partialRectangle;overflow=hidden;connectable=0;fillColor=#dae8fc;align=left;strokeColor=#6c8ebf;top=0;left=0;bottom=0;right=0;spacingLeft=6;" parent="aesqJSntFiqOSr08x3zS-211" vertex="1">
          <mxGeometry x="30" width="130" height="30" as="geometry">
            <mxRectangle width="130" height="30" as="alternateBounds" />
          </mxGeometry>
        </mxCell>
        <mxCell id="aesqJSntFiqOSr08x3zS-214" value="" style="shape=tableRow;horizontal=0;startSize=0;swimlaneHead=0;swimlaneBody=0;fillColor=#dae8fc;collapsible=0;dropTarget=0;points=[[0,0.5],[1,0.5]];portConstraint=eastwest;strokeColor=#6c8ebf;top=0;left=0;right=0;bottom=0;" parent="aesqJSntFiqOSr08x3zS-207" vertex="1">
          <mxGeometry y="90" width="160" height="30" as="geometry" />
        </mxCell>
        <mxCell id="aesqJSntFiqOSr08x3zS-215" value="" style="shape=partialRectangle;overflow=hidden;connectable=0;fillColor=#dae8fc;strokeColor=#6c8ebf;top=0;left=0;bottom=0;right=0;" parent="aesqJSntFiqOSr08x3zS-214" vertex="1">
          <mxGeometry width="30" height="30" as="geometry">
            <mxRectangle width="30" height="30" as="alternateBounds" />
          </mxGeometry>
        </mxCell>
        <mxCell id="aesqJSntFiqOSr08x3zS-216" value="房间关联业态ID" style="shape=partialRectangle;overflow=hidden;connectable=0;fillColor=#dae8fc;align=left;strokeColor=#6c8ebf;top=0;left=0;bottom=0;right=0;spacingLeft=6;" parent="aesqJSntFiqOSr08x3zS-214" vertex="1">
          <mxGeometry x="30" width="130" height="30" as="geometry">
            <mxRectangle width="130" height="30" as="alternateBounds" />
          </mxGeometry>
        </mxCell>
        <mxCell id="aesqJSntFiqOSr08x3zS-217" value="" style="shape=tableRow;horizontal=0;startSize=0;swimlaneHead=0;swimlaneBody=0;fillColor=#dae8fc;collapsible=0;dropTarget=0;points=[[0,0.5],[1,0.5]];portConstraint=eastwest;strokeColor=#6c8ebf;top=0;left=0;right=0;bottom=0;" parent="aesqJSntFiqOSr08x3zS-207" vertex="1">
          <mxGeometry y="120" width="160" height="30" as="geometry" />
        </mxCell>
        <mxCell id="aesqJSntFiqOSr08x3zS-218" value="" style="shape=partialRectangle;overflow=hidden;connectable=0;fillColor=#dae8fc;strokeColor=#6c8ebf;top=0;left=0;bottom=0;right=0;" parent="aesqJSntFiqOSr08x3zS-217" vertex="1">
          <mxGeometry width="30" height="30" as="geometry">
            <mxRectangle width="30" height="30" as="alternateBounds" />
          </mxGeometry>
        </mxCell>
        <mxCell id="aesqJSntFiqOSr08x3zS-219" value="房间关联楼栋ID" style="shape=partialRectangle;overflow=hidden;connectable=0;fillColor=#dae8fc;align=left;strokeColor=#6c8ebf;top=0;left=0;bottom=0;right=0;spacingLeft=6;" parent="aesqJSntFiqOSr08x3zS-217" vertex="1">
          <mxGeometry x="30" width="130" height="30" as="geometry">
            <mxRectangle width="130" height="30" as="alternateBounds" />
          </mxGeometry>
        </mxCell>
        <mxCell id="aesqJSntFiqOSr08x3zS-220" value="" style="shape=tableRow;horizontal=0;startSize=0;swimlaneHead=0;swimlaneBody=0;fillColor=#dae8fc;collapsible=0;dropTarget=0;points=[[0,0.5],[1,0.5]];portConstraint=eastwest;strokeColor=#6c8ebf;top=0;left=0;right=0;bottom=0;" parent="aesqJSntFiqOSr08x3zS-207" vertex="1">
          <mxGeometry y="150" width="160" height="30" as="geometry" />
        </mxCell>
        <mxCell id="aesqJSntFiqOSr08x3zS-221" value="" style="shape=partialRectangle;overflow=hidden;connectable=0;fillColor=#dae8fc;strokeColor=#6c8ebf;top=0;left=0;bottom=0;right=0;" parent="aesqJSntFiqOSr08x3zS-220" vertex="1">
          <mxGeometry width="30" height="30" as="geometry">
            <mxRectangle width="30" height="30" as="alternateBounds" />
          </mxGeometry>
        </mxCell>
        <mxCell id="aesqJSntFiqOSr08x3zS-222" value="房间关联分期ID" style="shape=partialRectangle;overflow=hidden;connectable=0;fillColor=#dae8fc;align=left;strokeColor=#6c8ebf;top=0;left=0;bottom=0;right=0;spacingLeft=6;" parent="aesqJSntFiqOSr08x3zS-220" vertex="1">
          <mxGeometry x="30" width="130" height="30" as="geometry">
            <mxRectangle width="130" height="30" as="alternateBounds" />
          </mxGeometry>
        </mxCell>
        <mxCell id="aesqJSntFiqOSr08x3zS-223" value="" style="shape=tableRow;horizontal=0;startSize=0;swimlaneHead=0;swimlaneBody=0;fillColor=#dae8fc;collapsible=0;dropTarget=0;points=[[0,0.5],[1,0.5]];portConstraint=eastwest;strokeColor=#6c8ebf;top=0;left=0;right=0;bottom=0;" parent="aesqJSntFiqOSr08x3zS-207" vertex="1">
          <mxGeometry y="180" width="160" height="30" as="geometry" />
        </mxCell>
        <mxCell id="aesqJSntFiqOSr08x3zS-224" value="" style="shape=partialRectangle;overflow=hidden;connectable=0;fillColor=#dae8fc;strokeColor=#6c8ebf;top=0;left=0;bottom=0;right=0;" parent="aesqJSntFiqOSr08x3zS-223" vertex="1">
          <mxGeometry width="30" height="30" as="geometry">
            <mxRectangle width="30" height="30" as="alternateBounds" />
          </mxGeometry>
        </mxCell>
        <mxCell id="aesqJSntFiqOSr08x3zS-225" value="房间关联项目ID" style="shape=partialRectangle;overflow=hidden;connectable=0;fillColor=#dae8fc;align=left;strokeColor=#6c8ebf;top=0;left=0;bottom=0;right=0;spacingLeft=6;" parent="aesqJSntFiqOSr08x3zS-223" vertex="1">
          <mxGeometry x="30" width="130" height="30" as="geometry">
            <mxRectangle width="130" height="30" as="alternateBounds" />
          </mxGeometry>
        </mxCell>
        <mxCell id="aesqJSntFiqOSr08x3zS-226" value="" style="shape=tableRow;horizontal=0;startSize=0;swimlaneHead=0;swimlaneBody=0;fillColor=#dae8fc;collapsible=0;dropTarget=0;points=[[0,0.5],[1,0.5]];portConstraint=eastwest;strokeColor=#6c8ebf;top=0;left=0;right=0;bottom=0;" parent="aesqJSntFiqOSr08x3zS-207" vertex="1">
          <mxGeometry y="210" width="160" height="30" as="geometry" />
        </mxCell>
        <mxCell id="aesqJSntFiqOSr08x3zS-227" value="" style="shape=partialRectangle;overflow=hidden;connectable=0;fillColor=#dae8fc;strokeColor=#6c8ebf;top=0;left=0;bottom=0;right=0;" parent="aesqJSntFiqOSr08x3zS-226" vertex="1">
          <mxGeometry width="30" height="30" as="geometry">
            <mxRectangle width="30" height="30" as="alternateBounds" />
          </mxGeometry>
        </mxCell>
        <mxCell id="aesqJSntFiqOSr08x3zS-228" value="法人公司编码" style="shape=partialRectangle;overflow=hidden;connectable=0;fillColor=#dae8fc;align=left;strokeColor=#6c8ebf;top=0;left=0;bottom=0;right=0;spacingLeft=6;" parent="aesqJSntFiqOSr08x3zS-226" vertex="1">
          <mxGeometry x="30" width="130" height="30" as="geometry">
            <mxRectangle width="130" height="30" as="alternateBounds" />
          </mxGeometry>
        </mxCell>
        <mxCell id="aesqJSntFiqOSr08x3zS-229" value="" style="shape=tableRow;horizontal=0;startSize=0;swimlaneHead=0;swimlaneBody=0;fillColor=#dae8fc;collapsible=0;dropTarget=0;points=[[0,0.5],[1,0.5]];portConstraint=eastwest;strokeColor=#6c8ebf;top=0;left=0;right=0;bottom=0;" parent="aesqJSntFiqOSr08x3zS-207" vertex="1">
          <mxGeometry y="240" width="160" height="30" as="geometry" />
        </mxCell>
        <mxCell id="aesqJSntFiqOSr08x3zS-230" value="" style="shape=partialRectangle;overflow=hidden;connectable=0;fillColor=#dae8fc;strokeColor=#6c8ebf;top=0;left=0;bottom=0;right=0;" parent="aesqJSntFiqOSr08x3zS-229" vertex="1">
          <mxGeometry width="30" height="30" as="geometry">
            <mxRectangle width="30" height="30" as="alternateBounds" />
          </mxGeometry>
        </mxCell>
        <mxCell id="aesqJSntFiqOSr08x3zS-231" value="房间业态编码" style="shape=partialRectangle;overflow=hidden;connectable=0;fillColor=#dae8fc;align=left;strokeColor=#6c8ebf;top=0;left=0;bottom=0;right=0;spacingLeft=6;" parent="aesqJSntFiqOSr08x3zS-229" vertex="1">
          <mxGeometry x="30" width="130" height="30" as="geometry">
            <mxRectangle width="130" height="30" as="alternateBounds" />
          </mxGeometry>
        </mxCell>
        <mxCell id="aesqJSntFiqOSr08x3zS-232" value="" style="shape=tableRow;horizontal=0;startSize=0;swimlaneHead=0;swimlaneBody=0;fillColor=#dae8fc;collapsible=0;dropTarget=0;points=[[0,0.5],[1,0.5]];portConstraint=eastwest;strokeColor=#6c8ebf;top=0;left=0;right=0;bottom=0;" parent="aesqJSntFiqOSr08x3zS-207" vertex="1">
          <mxGeometry y="270" width="160" height="30" as="geometry" />
        </mxCell>
        <mxCell id="aesqJSntFiqOSr08x3zS-233" value="" style="shape=partialRectangle;overflow=hidden;connectable=0;fillColor=#dae8fc;strokeColor=#6c8ebf;top=0;left=0;bottom=0;right=0;" parent="aesqJSntFiqOSr08x3zS-232" vertex="1">
          <mxGeometry width="30" height="30" as="geometry">
            <mxRectangle width="30" height="30" as="alternateBounds" />
          </mxGeometry>
        </mxCell>
        <mxCell id="aesqJSntFiqOSr08x3zS-234" value="房间业态名称" style="shape=partialRectangle;overflow=hidden;connectable=0;fillColor=#dae8fc;align=left;strokeColor=#6c8ebf;top=0;left=0;bottom=0;right=0;spacingLeft=6;" parent="aesqJSntFiqOSr08x3zS-232" vertex="1">
          <mxGeometry x="30" width="130" height="30" as="geometry">
            <mxRectangle width="130" height="30" as="alternateBounds" />
          </mxGeometry>
        </mxCell>
        <mxCell id="aesqJSntFiqOSr08x3zS-235" value="" style="shape=tableRow;horizontal=0;startSize=0;swimlaneHead=0;swimlaneBody=0;fillColor=#dae8fc;collapsible=0;dropTarget=0;points=[[0,0.5],[1,0.5]];portConstraint=eastwest;strokeColor=#6c8ebf;top=0;left=0;right=0;bottom=0;" parent="aesqJSntFiqOSr08x3zS-207" vertex="1">
          <mxGeometry y="300" width="160" height="30" as="geometry" />
        </mxCell>
        <mxCell id="aesqJSntFiqOSr08x3zS-236" value="" style="shape=partialRectangle;overflow=hidden;connectable=0;fillColor=#dae8fc;strokeColor=#6c8ebf;top=0;left=0;bottom=0;right=0;" parent="aesqJSntFiqOSr08x3zS-235" vertex="1">
          <mxGeometry width="30" height="30" as="geometry">
            <mxRectangle width="30" height="30" as="alternateBounds" />
          </mxGeometry>
        </mxCell>
        <mxCell id="aesqJSntFiqOSr08x3zS-237" value="预测建筑面积" style="shape=partialRectangle;overflow=hidden;connectable=0;fillColor=#dae8fc;align=left;strokeColor=#6c8ebf;top=0;left=0;bottom=0;right=0;spacingLeft=6;" parent="aesqJSntFiqOSr08x3zS-235" vertex="1">
          <mxGeometry x="30" width="130" height="30" as="geometry">
            <mxRectangle width="130" height="30" as="alternateBounds" />
          </mxGeometry>
        </mxCell>
        <mxCell id="aesqJSntFiqOSr08x3zS-238" value="" style="shape=tableRow;horizontal=0;startSize=0;swimlaneHead=0;swimlaneBody=0;fillColor=#dae8fc;collapsible=0;dropTarget=0;points=[[0,0.5],[1,0.5]];portConstraint=eastwest;strokeColor=#6c8ebf;top=0;left=0;right=0;bottom=0;" parent="aesqJSntFiqOSr08x3zS-207" vertex="1">
          <mxGeometry y="330" width="160" height="30" as="geometry" />
        </mxCell>
        <mxCell id="aesqJSntFiqOSr08x3zS-239" value="" style="shape=partialRectangle;overflow=hidden;connectable=0;fillColor=#dae8fc;strokeColor=#6c8ebf;top=0;left=0;bottom=0;right=0;" parent="aesqJSntFiqOSr08x3zS-238" vertex="1">
          <mxGeometry width="30" height="30" as="geometry">
            <mxRectangle width="30" height="30" as="alternateBounds" />
          </mxGeometry>
        </mxCell>
        <mxCell id="aesqJSntFiqOSr08x3zS-240" value="预测套内面积" style="shape=partialRectangle;overflow=hidden;connectable=0;fillColor=#dae8fc;align=left;strokeColor=#6c8ebf;top=0;left=0;bottom=0;right=0;spacingLeft=6;" parent="aesqJSntFiqOSr08x3zS-238" vertex="1">
          <mxGeometry x="30" width="130" height="30" as="geometry">
            <mxRectangle width="130" height="30" as="alternateBounds" />
          </mxGeometry>
        </mxCell>
        <mxCell id="aesqJSntFiqOSr08x3zS-241" value="" style="shape=tableRow;horizontal=0;startSize=0;swimlaneHead=0;swimlaneBody=0;fillColor=#dae8fc;collapsible=0;dropTarget=0;points=[[0,0.5],[1,0.5]];portConstraint=eastwest;strokeColor=#6c8ebf;top=0;left=0;right=0;bottom=0;" parent="aesqJSntFiqOSr08x3zS-207" vertex="1">
          <mxGeometry y="360" width="160" height="30" as="geometry" />
        </mxCell>
        <mxCell id="aesqJSntFiqOSr08x3zS-242" value="" style="shape=partialRectangle;overflow=hidden;connectable=0;fillColor=#dae8fc;strokeColor=#6c8ebf;top=0;left=0;bottom=0;right=0;" parent="aesqJSntFiqOSr08x3zS-241" vertex="1">
          <mxGeometry width="30" height="30" as="geometry">
            <mxRectangle width="30" height="30" as="alternateBounds" />
          </mxGeometry>
        </mxCell>
        <mxCell id="aesqJSntFiqOSr08x3zS-243" value="实测建筑面积" style="shape=partialRectangle;overflow=hidden;connectable=0;fillColor=#dae8fc;align=left;strokeColor=#6c8ebf;top=0;left=0;bottom=0;right=0;spacingLeft=6;" parent="aesqJSntFiqOSr08x3zS-241" vertex="1">
          <mxGeometry x="30" width="130" height="30" as="geometry">
            <mxRectangle width="130" height="30" as="alternateBounds" />
          </mxGeometry>
        </mxCell>
        <mxCell id="aesqJSntFiqOSr08x3zS-244" value="" style="shape=tableRow;horizontal=0;startSize=0;swimlaneHead=0;swimlaneBody=0;fillColor=#dae8fc;collapsible=0;dropTarget=0;points=[[0,0.5],[1,0.5]];portConstraint=eastwest;strokeColor=#6c8ebf;top=0;left=0;right=0;bottom=0;" parent="aesqJSntFiqOSr08x3zS-207" vertex="1">
          <mxGeometry y="390" width="160" height="30" as="geometry" />
        </mxCell>
        <mxCell id="aesqJSntFiqOSr08x3zS-245" value="" style="shape=partialRectangle;overflow=hidden;connectable=0;fillColor=#dae8fc;strokeColor=#6c8ebf;top=0;left=0;bottom=0;right=0;" parent="aesqJSntFiqOSr08x3zS-244" vertex="1">
          <mxGeometry width="30" height="30" as="geometry">
            <mxRectangle width="30" height="30" as="alternateBounds" />
          </mxGeometry>
        </mxCell>
        <mxCell id="aesqJSntFiqOSr08x3zS-246" value="实测套内面积" style="shape=partialRectangle;overflow=hidden;connectable=0;fillColor=#dae8fc;align=left;strokeColor=#6c8ebf;top=0;left=0;bottom=0;right=0;spacingLeft=6;" parent="aesqJSntFiqOSr08x3zS-244" vertex="1">
          <mxGeometry x="30" width="130" height="30" as="geometry">
            <mxRectangle width="130" height="30" as="alternateBounds" />
          </mxGeometry>
        </mxCell>
        <mxCell id="aesqJSntFiqOSr08x3zS-247" value="" style="shape=tableRow;horizontal=0;startSize=0;swimlaneHead=0;swimlaneBody=0;fillColor=#dae8fc;collapsible=0;dropTarget=0;points=[[0,0.5],[1,0.5]];portConstraint=eastwest;strokeColor=#6c8ebf;top=0;left=0;right=0;bottom=0;" parent="aesqJSntFiqOSr08x3zS-207" vertex="1">
          <mxGeometry y="420" width="160" height="30" as="geometry" />
        </mxCell>
        <mxCell id="aesqJSntFiqOSr08x3zS-248" value="" style="shape=partialRectangle;overflow=hidden;connectable=0;fillColor=#dae8fc;strokeColor=#6c8ebf;top=0;left=0;bottom=0;right=0;" parent="aesqJSntFiqOSr08x3zS-247" vertex="1">
          <mxGeometry width="30" height="30" as="geometry">
            <mxRectangle width="30" height="30" as="alternateBounds" />
          </mxGeometry>
        </mxCell>
        <mxCell id="aesqJSntFiqOSr08x3zS-249" value="装修类型" style="shape=partialRectangle;overflow=hidden;connectable=0;fillColor=#dae8fc;align=left;strokeColor=#6c8ebf;top=0;left=0;bottom=0;right=0;spacingLeft=6;" parent="aesqJSntFiqOSr08x3zS-247" vertex="1">
          <mxGeometry x="30" width="130" height="30" as="geometry">
            <mxRectangle width="130" height="30" as="alternateBounds" />
          </mxGeometry>
        </mxCell>
        <mxCell id="aesqJSntFiqOSr08x3zS-250" value="" style="shape=tableRow;horizontal=0;startSize=0;swimlaneHead=0;swimlaneBody=0;fillColor=#dae8fc;collapsible=0;dropTarget=0;points=[[0,0.5],[1,0.5]];portConstraint=eastwest;strokeColor=#6c8ebf;top=0;left=0;right=0;bottom=0;" parent="aesqJSntFiqOSr08x3zS-207" vertex="1">
          <mxGeometry y="450" width="160" height="30" as="geometry" />
        </mxCell>
        <mxCell id="aesqJSntFiqOSr08x3zS-251" value="" style="shape=partialRectangle;overflow=hidden;connectable=0;fillColor=#dae8fc;strokeColor=#6c8ebf;top=0;left=0;bottom=0;right=0;" parent="aesqJSntFiqOSr08x3zS-250" vertex="1">
          <mxGeometry width="30" height="30" as="geometry">
            <mxRectangle width="30" height="30" as="alternateBounds" />
          </mxGeometry>
        </mxCell>
        <mxCell id="aesqJSntFiqOSr08x3zS-252" value="户型ID" style="shape=partialRectangle;overflow=hidden;connectable=0;fillColor=#dae8fc;align=left;strokeColor=#6c8ebf;top=0;left=0;bottom=0;right=0;spacingLeft=6;" parent="aesqJSntFiqOSr08x3zS-250" vertex="1">
          <mxGeometry x="30" width="130" height="30" as="geometry">
            <mxRectangle width="130" height="30" as="alternateBounds" />
          </mxGeometry>
        </mxCell>
        <mxCell id="aesqJSntFiqOSr08x3zS-254" value="" style="edgeStyle=orthogonalEdgeStyle;fontSize=12;html=1;endArrow=ERoneToMany;rounded=0;curved=1;" parent="1" source="aesqJSntFiqOSr08x3zS-157" target="aesqJSntFiqOSr08x3zS-185" edge="1">
          <mxGeometry width="100" height="100" relative="1" as="geometry">
            <mxPoint x="1274" y="673" as="sourcePoint" />
            <mxPoint x="1374" y="573" as="targetPoint" />
          </mxGeometry>
        </mxCell>
        <mxCell id="aesqJSntFiqOSr08x3zS-255" value="" style="edgeStyle=orthogonalEdgeStyle;fontSize=12;html=1;endArrow=ERoneToMany;rounded=0;curved=1;" parent="1" source="aesqJSntFiqOSr08x3zS-176" target="aesqJSntFiqOSr08x3zS-201" edge="1">
          <mxGeometry width="100" height="100" relative="1" as="geometry">
            <mxPoint x="1274" y="673" as="sourcePoint" />
            <mxPoint x="1374" y="573" as="targetPoint" />
          </mxGeometry>
        </mxCell>
        <mxCell id="aesqJSntFiqOSr08x3zS-256" value="" style="edgeStyle=entityRelationEdgeStyle;fontSize=12;html=1;endArrow=ERoneToMany;rounded=0;curved=1;" parent="1" source="aesqJSntFiqOSr08x3zS-192" target="aesqJSntFiqOSr08x3zS-217" edge="1">
          <mxGeometry width="100" height="100" relative="1" as="geometry">
            <mxPoint x="1274" y="673" as="sourcePoint" />
            <mxPoint x="1374" y="573" as="targetPoint" />
          </mxGeometry>
        </mxCell>
        <mxCell id="aesqJSntFiqOSr08x3zS-257" value="" style="edgeStyle=entityRelationEdgeStyle;fontSize=12;html=1;endArrow=ERoneToMany;rounded=0;curved=1;" parent="1" source="aesqJSntFiqOSr08x3zS-138" target="aesqJSntFiqOSr08x3zS-250" edge="1">
          <mxGeometry width="100" height="100" relative="1" as="geometry">
            <mxPoint x="1274" y="840" as="sourcePoint" />
            <mxPoint x="1374" y="740" as="targetPoint" />
          </mxGeometry>
        </mxCell>
        <mxCell id="aesqJSntFiqOSr08x3zS-258" value="" style="edgeStyle=entityRelationEdgeStyle;fontSize=12;html=1;endArrow=ERoneToMany;rounded=0;curved=1;" parent="1" source="aesqJSntFiqOSr08x3zS-128" target="aesqJSntFiqOSr08x3zS-214" edge="1">
          <mxGeometry width="100" height="100" relative="1" as="geometry">
            <mxPoint x="1274" y="840" as="sourcePoint" />
            <mxPoint x="1374" y="740" as="targetPoint" />
          </mxGeometry>
        </mxCell>
        <mxCell id="aesqJSntFiqOSr08x3zS-259" value="【WY】项目数据同步中间表" style="shape=table;startSize=30;container=1;collapsible=1;childLayout=tableLayout;fixedRows=1;rowLines=0;fontStyle=1;align=center;resizeLast=1;fillColor=#d5e8d4;strokeColor=#82b366;" parent="1" vertex="1">
          <mxGeometry x="2247.25" y="682" width="160" height="120" as="geometry" />
        </mxCell>
        <mxCell id="aesqJSntFiqOSr08x3zS-260" value="" style="shape=tableRow;horizontal=0;startSize=0;swimlaneHead=0;swimlaneBody=0;fillColor=#d5e8d4;collapsible=0;dropTarget=0;points=[[0,0.5],[1,0.5]];portConstraint=eastwest;strokeColor=#82b366;top=0;left=0;right=0;bottom=0;" parent="aesqJSntFiqOSr08x3zS-259" vertex="1">
          <mxGeometry y="30" width="160" height="30" as="geometry" />
        </mxCell>
        <mxCell id="aesqJSntFiqOSr08x3zS-261" value="" style="shape=partialRectangle;overflow=hidden;connectable=0;fillColor=#d5e8d4;strokeColor=#82b366;top=0;left=0;bottom=0;right=0;" parent="aesqJSntFiqOSr08x3zS-260" vertex="1">
          <mxGeometry width="30" height="30" as="geometry">
            <mxRectangle width="30" height="30" as="alternateBounds" />
          </mxGeometry>
        </mxCell>
        <mxCell id="aesqJSntFiqOSr08x3zS-262" value="项目ID" style="shape=partialRectangle;overflow=hidden;connectable=0;fillColor=#d5e8d4;align=left;strokeColor=#82b366;top=0;left=0;bottom=0;right=0;spacingLeft=6;" parent="aesqJSntFiqOSr08x3zS-260" vertex="1">
          <mxGeometry x="30" width="130" height="30" as="geometry">
            <mxRectangle width="130" height="30" as="alternateBounds" />
          </mxGeometry>
        </mxCell>
        <mxCell id="aesqJSntFiqOSr08x3zS-266" value="" style="shape=tableRow;horizontal=0;startSize=0;swimlaneHead=0;swimlaneBody=0;fillColor=#d5e8d4;collapsible=0;dropTarget=0;points=[[0,0.5],[1,0.5]];portConstraint=eastwest;strokeColor=#82b366;top=0;left=0;right=0;bottom=0;" parent="aesqJSntFiqOSr08x3zS-259" vertex="1">
          <mxGeometry y="60" width="160" height="30" as="geometry" />
        </mxCell>
        <mxCell id="aesqJSntFiqOSr08x3zS-267" value="" style="shape=partialRectangle;overflow=hidden;connectable=0;fillColor=#d5e8d4;strokeColor=#82b366;top=0;left=0;bottom=0;right=0;" parent="aesqJSntFiqOSr08x3zS-266" vertex="1">
          <mxGeometry width="30" height="30" as="geometry">
            <mxRectangle width="30" height="30" as="alternateBounds" />
          </mxGeometry>
        </mxCell>
        <mxCell id="aesqJSntFiqOSr08x3zS-268" value="项目名称" style="shape=partialRectangle;overflow=hidden;connectable=0;fillColor=#d5e8d4;align=left;strokeColor=#82b366;top=0;left=0;bottom=0;right=0;spacingLeft=6;" parent="aesqJSntFiqOSr08x3zS-266" vertex="1">
          <mxGeometry x="30" width="130" height="30" as="geometry">
            <mxRectangle width="130" height="30" as="alternateBounds" />
          </mxGeometry>
        </mxCell>
        <mxCell id="aesqJSntFiqOSr08x3zS-272" value="" style="shape=tableRow;horizontal=0;startSize=0;swimlaneHead=0;swimlaneBody=0;fillColor=#d5e8d4;collapsible=0;dropTarget=0;points=[[0,0.5],[1,0.5]];portConstraint=eastwest;strokeColor=#82b366;top=0;left=0;right=0;bottom=0;" parent="aesqJSntFiqOSr08x3zS-259" vertex="1">
          <mxGeometry y="90" width="160" height="30" as="geometry" />
        </mxCell>
        <mxCell id="aesqJSntFiqOSr08x3zS-273" value="" style="shape=partialRectangle;overflow=hidden;connectable=0;fillColor=#d5e8d4;strokeColor=#82b366;top=0;left=0;bottom=0;right=0;" parent="aesqJSntFiqOSr08x3zS-272" vertex="1">
          <mxGeometry width="30" height="30" as="geometry">
            <mxRectangle width="30" height="30" as="alternateBounds" />
          </mxGeometry>
        </mxCell>
        <mxCell id="aesqJSntFiqOSr08x3zS-274" value="同步标识" style="shape=partialRectangle;overflow=hidden;connectable=0;fillColor=#d5e8d4;align=left;strokeColor=#82b366;top=0;left=0;bottom=0;right=0;spacingLeft=6;" parent="aesqJSntFiqOSr08x3zS-272" vertex="1">
          <mxGeometry x="30" width="130" height="30" as="geometry">
            <mxRectangle width="130" height="30" as="alternateBounds" />
          </mxGeometry>
        </mxCell>
        <mxCell id="aesqJSntFiqOSr08x3zS-275" value="【WY】楼栋数据同步中间表" style="shape=table;startSize=30;container=1;collapsible=1;childLayout=tableLayout;fixedRows=1;rowLines=0;fontStyle=1;align=center;resizeLast=1;fillColor=#d5e8d4;strokeColor=#82b366;" parent="1" vertex="1">
          <mxGeometry x="2245" y="525" width="164.5001220703125" height="120" as="geometry" />
        </mxCell>
        <mxCell id="aesqJSntFiqOSr08x3zS-276" value="" style="shape=tableRow;horizontal=0;startSize=0;swimlaneHead=0;swimlaneBody=0;fillColor=#d5e8d4;collapsible=0;dropTarget=0;points=[[0,0.5],[1,0.5]];portConstraint=eastwest;strokeColor=#82b366;top=0;left=0;right=0;bottom=0;" parent="aesqJSntFiqOSr08x3zS-275" vertex="1">
          <mxGeometry y="30" width="164.5001220703125" height="30" as="geometry" />
        </mxCell>
        <mxCell id="aesqJSntFiqOSr08x3zS-277" value="" style="shape=partialRectangle;overflow=hidden;connectable=0;fillColor=#d5e8d4;strokeColor=#82b366;top=0;left=0;bottom=0;right=0;" parent="aesqJSntFiqOSr08x3zS-276" vertex="1">
          <mxGeometry width="30" height="30" as="geometry">
            <mxRectangle width="30" height="30" as="alternateBounds" />
          </mxGeometry>
        </mxCell>
        <mxCell id="aesqJSntFiqOSr08x3zS-278" value="楼栋ID" style="shape=partialRectangle;overflow=hidden;connectable=0;fillColor=#d5e8d4;align=left;strokeColor=#82b366;top=0;left=0;bottom=0;right=0;spacingLeft=6;" parent="aesqJSntFiqOSr08x3zS-276" vertex="1">
          <mxGeometry x="30" width="134.5001220703125" height="30" as="geometry">
            <mxRectangle width="134.5001220703125" height="30" as="alternateBounds" />
          </mxGeometry>
        </mxCell>
        <mxCell id="aesqJSntFiqOSr08x3zS-282" value="" style="shape=tableRow;horizontal=0;startSize=0;swimlaneHead=0;swimlaneBody=0;fillColor=#d5e8d4;collapsible=0;dropTarget=0;points=[[0,0.5],[1,0.5]];portConstraint=eastwest;strokeColor=#82b366;top=0;left=0;right=0;bottom=0;" parent="aesqJSntFiqOSr08x3zS-275" vertex="1">
          <mxGeometry y="60" width="164.5001220703125" height="30" as="geometry" />
        </mxCell>
        <mxCell id="aesqJSntFiqOSr08x3zS-283" value="" style="shape=partialRectangle;overflow=hidden;connectable=0;fillColor=#d5e8d4;strokeColor=#82b366;top=0;left=0;bottom=0;right=0;" parent="aesqJSntFiqOSr08x3zS-282" vertex="1">
          <mxGeometry width="30" height="30" as="geometry">
            <mxRectangle width="30" height="30" as="alternateBounds" />
          </mxGeometry>
        </mxCell>
        <mxCell id="aesqJSntFiqOSr08x3zS-284" value="楼栋名" style="shape=partialRectangle;overflow=hidden;connectable=0;fillColor=#d5e8d4;align=left;strokeColor=#82b366;top=0;left=0;bottom=0;right=0;spacingLeft=6;" parent="aesqJSntFiqOSr08x3zS-282" vertex="1">
          <mxGeometry x="30" width="134.5001220703125" height="30" as="geometry">
            <mxRectangle width="134.5001220703125" height="30" as="alternateBounds" />
          </mxGeometry>
        </mxCell>
        <mxCell id="aesqJSntFiqOSr08x3zS-288" value="" style="shape=tableRow;horizontal=0;startSize=0;swimlaneHead=0;swimlaneBody=0;fillColor=#d5e8d4;collapsible=0;dropTarget=0;points=[[0,0.5],[1,0.5]];portConstraint=eastwest;strokeColor=#82b366;top=0;left=0;right=0;bottom=0;" parent="aesqJSntFiqOSr08x3zS-275" vertex="1">
          <mxGeometry y="90" width="164.5001220703125" height="30" as="geometry" />
        </mxCell>
        <mxCell id="aesqJSntFiqOSr08x3zS-289" value="" style="shape=partialRectangle;overflow=hidden;connectable=0;fillColor=#d5e8d4;strokeColor=#82b366;top=0;left=0;bottom=0;right=0;" parent="aesqJSntFiqOSr08x3zS-288" vertex="1">
          <mxGeometry width="30" height="30" as="geometry">
            <mxRectangle width="30" height="30" as="alternateBounds" />
          </mxGeometry>
        </mxCell>
        <mxCell id="aesqJSntFiqOSr08x3zS-290" value="楼栋关联项目ID" style="shape=partialRectangle;overflow=hidden;connectable=0;fillColor=#d5e8d4;align=left;strokeColor=#82b366;top=0;left=0;bottom=0;right=0;spacingLeft=6;" parent="aesqJSntFiqOSr08x3zS-288" vertex="1">
          <mxGeometry x="30" width="134.5001220703125" height="30" as="geometry">
            <mxRectangle width="134.5001220703125" height="30" as="alternateBounds" />
          </mxGeometry>
        </mxCell>
        <mxCell id="aesqJSntFiqOSr08x3zS-291" value="【WY】房间数据同步中间表" style="shape=table;startSize=30;container=1;collapsible=1;childLayout=tableLayout;fixedRows=1;rowLines=0;fontStyle=1;align=center;resizeLast=1;fillColor=#d5e8d4;strokeColor=#82b366;" parent="1" vertex="1">
          <mxGeometry x="2544" y="516" width="167.738037109375" height="270" as="geometry" />
        </mxCell>
        <mxCell id="aesqJSntFiqOSr08x3zS-292" value="" style="shape=tableRow;horizontal=0;startSize=0;swimlaneHead=0;swimlaneBody=0;fillColor=#d5e8d4;collapsible=0;dropTarget=0;points=[[0,0.5],[1,0.5]];portConstraint=eastwest;strokeColor=#82b366;top=0;left=0;right=0;bottom=0;" parent="aesqJSntFiqOSr08x3zS-291" vertex="1">
          <mxGeometry y="30" width="167.738037109375" height="30" as="geometry" />
        </mxCell>
        <mxCell id="aesqJSntFiqOSr08x3zS-293" value="" style="shape=partialRectangle;overflow=hidden;connectable=0;fillColor=#d5e8d4;strokeColor=#82b366;top=0;left=0;bottom=0;right=0;" parent="aesqJSntFiqOSr08x3zS-292" vertex="1">
          <mxGeometry width="30" height="30" as="geometry">
            <mxRectangle width="30" height="30" as="alternateBounds" />
          </mxGeometry>
        </mxCell>
        <mxCell id="aesqJSntFiqOSr08x3zS-294" value="房间ID" style="shape=partialRectangle;overflow=hidden;connectable=0;fillColor=#d5e8d4;align=left;strokeColor=#82b366;top=0;left=0;bottom=0;right=0;spacingLeft=6;" parent="aesqJSntFiqOSr08x3zS-292" vertex="1">
          <mxGeometry x="30" width="137.738037109375" height="30" as="geometry">
            <mxRectangle width="137.738037109375" height="30" as="alternateBounds" />
          </mxGeometry>
        </mxCell>
        <mxCell id="aesqJSntFiqOSr08x3zS-298" value="" style="shape=tableRow;horizontal=0;startSize=0;swimlaneHead=0;swimlaneBody=0;fillColor=#d5e8d4;collapsible=0;dropTarget=0;points=[[0,0.5],[1,0.5]];portConstraint=eastwest;strokeColor=#82b366;top=0;left=0;right=0;bottom=0;" parent="aesqJSntFiqOSr08x3zS-291" vertex="1">
          <mxGeometry y="60" width="167.738037109375" height="30" as="geometry" />
        </mxCell>
        <mxCell id="aesqJSntFiqOSr08x3zS-299" value="" style="shape=partialRectangle;overflow=hidden;connectable=0;fillColor=#d5e8d4;strokeColor=#82b366;top=0;left=0;bottom=0;right=0;" parent="aesqJSntFiqOSr08x3zS-298" vertex="1">
          <mxGeometry width="30" height="30" as="geometry">
            <mxRectangle width="30" height="30" as="alternateBounds" />
          </mxGeometry>
        </mxCell>
        <mxCell id="aesqJSntFiqOSr08x3zS-300" value="房间名" style="shape=partialRectangle;overflow=hidden;connectable=0;fillColor=#d5e8d4;align=left;strokeColor=#82b366;top=0;left=0;bottom=0;right=0;spacingLeft=6;" parent="aesqJSntFiqOSr08x3zS-298" vertex="1">
          <mxGeometry x="30" width="137.738037109375" height="30" as="geometry">
            <mxRectangle width="137.738037109375" height="30" as="alternateBounds" />
          </mxGeometry>
        </mxCell>
        <mxCell id="aesqJSntFiqOSr08x3zS-304" value="" style="shape=tableRow;horizontal=0;startSize=0;swimlaneHead=0;swimlaneBody=0;fillColor=#d5e8d4;collapsible=0;dropTarget=0;points=[[0,0.5],[1,0.5]];portConstraint=eastwest;strokeColor=#82b366;top=0;left=0;right=0;bottom=0;" parent="aesqJSntFiqOSr08x3zS-291" vertex="1">
          <mxGeometry y="90" width="167.738037109375" height="30" as="geometry" />
        </mxCell>
        <mxCell id="aesqJSntFiqOSr08x3zS-305" value="" style="shape=partialRectangle;overflow=hidden;connectable=0;fillColor=#d5e8d4;strokeColor=#82b366;top=0;left=0;bottom=0;right=0;" parent="aesqJSntFiqOSr08x3zS-304" vertex="1">
          <mxGeometry width="30" height="30" as="geometry">
            <mxRectangle width="30" height="30" as="alternateBounds" />
          </mxGeometry>
        </mxCell>
        <mxCell id="aesqJSntFiqOSr08x3zS-306" value="房间关联楼栋ID" style="shape=partialRectangle;overflow=hidden;connectable=0;fillColor=#d5e8d4;align=left;strokeColor=#82b366;top=0;left=0;bottom=0;right=0;spacingLeft=6;" parent="aesqJSntFiqOSr08x3zS-304" vertex="1">
          <mxGeometry x="30" width="137.738037109375" height="30" as="geometry">
            <mxRectangle width="137.738037109375" height="30" as="alternateBounds" />
          </mxGeometry>
        </mxCell>
        <mxCell id="aesqJSntFiqOSr08x3zS-310" value="" style="shape=tableRow;horizontal=0;startSize=0;swimlaneHead=0;swimlaneBody=0;fillColor=#d5e8d4;collapsible=0;dropTarget=0;points=[[0,0.5],[1,0.5]];portConstraint=eastwest;strokeColor=#82b366;top=0;left=0;right=0;bottom=0;" parent="aesqJSntFiqOSr08x3zS-291" vertex="1">
          <mxGeometry y="120" width="167.738037109375" height="30" as="geometry" />
        </mxCell>
        <mxCell id="aesqJSntFiqOSr08x3zS-311" value="" style="shape=partialRectangle;overflow=hidden;connectable=0;fillColor=#d5e8d4;strokeColor=#82b366;top=0;left=0;bottom=0;right=0;" parent="aesqJSntFiqOSr08x3zS-310" vertex="1">
          <mxGeometry width="30" height="30" as="geometry">
            <mxRectangle width="30" height="30" as="alternateBounds" />
          </mxGeometry>
        </mxCell>
        <mxCell id="aesqJSntFiqOSr08x3zS-312" value="房间关联项目ID" style="shape=partialRectangle;overflow=hidden;connectable=0;fillColor=#d5e8d4;align=left;strokeColor=#82b366;top=0;left=0;bottom=0;right=0;spacingLeft=6;" parent="aesqJSntFiqOSr08x3zS-310" vertex="1">
          <mxGeometry x="30" width="137.738037109375" height="30" as="geometry">
            <mxRectangle width="137.738037109375" height="30" as="alternateBounds" />
          </mxGeometry>
        </mxCell>
        <mxCell id="aesqJSntFiqOSr08x3zS-316" value="" style="shape=tableRow;horizontal=0;startSize=0;swimlaneHead=0;swimlaneBody=0;fillColor=#d5e8d4;collapsible=0;dropTarget=0;points=[[0,0.5],[1,0.5]];portConstraint=eastwest;strokeColor=#82b366;top=0;left=0;right=0;bottom=0;" parent="aesqJSntFiqOSr08x3zS-291" vertex="1">
          <mxGeometry y="150" width="167.738037109375" height="30" as="geometry" />
        </mxCell>
        <mxCell id="aesqJSntFiqOSr08x3zS-317" value="" style="shape=partialRectangle;overflow=hidden;connectable=0;fillColor=#d5e8d4;strokeColor=#82b366;top=0;left=0;bottom=0;right=0;" parent="aesqJSntFiqOSr08x3zS-316" vertex="1">
          <mxGeometry width="30" height="30" as="geometry">
            <mxRectangle width="30" height="30" as="alternateBounds" />
          </mxGeometry>
        </mxCell>
        <mxCell id="aesqJSntFiqOSr08x3zS-318" value="物业房间业态编码" style="shape=partialRectangle;overflow=hidden;connectable=0;fillColor=#d5e8d4;align=left;strokeColor=#82b366;top=0;left=0;bottom=0;right=0;spacingLeft=6;" parent="aesqJSntFiqOSr08x3zS-316" vertex="1">
          <mxGeometry x="30" width="137.738037109375" height="30" as="geometry">
            <mxRectangle width="137.738037109375" height="30" as="alternateBounds" />
          </mxGeometry>
        </mxCell>
        <mxCell id="aesqJSntFiqOSr08x3zS-322" value="" style="shape=tableRow;horizontal=0;startSize=0;swimlaneHead=0;swimlaneBody=0;fillColor=#d5e8d4;collapsible=0;dropTarget=0;points=[[0,0.5],[1,0.5]];portConstraint=eastwest;strokeColor=#82b366;top=0;left=0;right=0;bottom=0;" parent="aesqJSntFiqOSr08x3zS-291" vertex="1">
          <mxGeometry y="180" width="167.738037109375" height="30" as="geometry" />
        </mxCell>
        <mxCell id="aesqJSntFiqOSr08x3zS-323" value="" style="shape=partialRectangle;overflow=hidden;connectable=0;fillColor=#d5e8d4;strokeColor=#82b366;top=0;left=0;bottom=0;right=0;" parent="aesqJSntFiqOSr08x3zS-322" vertex="1">
          <mxGeometry width="30" height="30" as="geometry">
            <mxRectangle width="30" height="30" as="alternateBounds" />
          </mxGeometry>
        </mxCell>
        <mxCell id="aesqJSntFiqOSr08x3zS-324" value="物业房间业态名称" style="shape=partialRectangle;overflow=hidden;connectable=0;fillColor=#d5e8d4;align=left;strokeColor=#82b366;top=0;left=0;bottom=0;right=0;spacingLeft=6;" parent="aesqJSntFiqOSr08x3zS-322" vertex="1">
          <mxGeometry x="30" width="137.738037109375" height="30" as="geometry">
            <mxRectangle width="137.738037109375" height="30" as="alternateBounds" />
          </mxGeometry>
        </mxCell>
        <mxCell id="aesqJSntFiqOSr08x3zS-328" value="" style="shape=tableRow;horizontal=0;startSize=0;swimlaneHead=0;swimlaneBody=0;fillColor=#d5e8d4;collapsible=0;dropTarget=0;points=[[0,0.5],[1,0.5]];portConstraint=eastwest;strokeColor=#82b366;top=0;left=0;right=0;bottom=0;" parent="aesqJSntFiqOSr08x3zS-291" vertex="1">
          <mxGeometry y="210" width="167.738037109375" height="30" as="geometry" />
        </mxCell>
        <mxCell id="aesqJSntFiqOSr08x3zS-329" value="" style="shape=partialRectangle;overflow=hidden;connectable=0;fillColor=#d5e8d4;strokeColor=#82b366;top=0;left=0;bottom=0;right=0;" parent="aesqJSntFiqOSr08x3zS-328" vertex="1">
          <mxGeometry width="30" height="30" as="geometry">
            <mxRectangle width="30" height="30" as="alternateBounds" />
          </mxGeometry>
        </mxCell>
        <mxCell id="aesqJSntFiqOSr08x3zS-330" value="实测建筑面积" style="shape=partialRectangle;overflow=hidden;connectable=0;fillColor=#d5e8d4;align=left;strokeColor=#82b366;top=0;left=0;bottom=0;right=0;spacingLeft=6;" parent="aesqJSntFiqOSr08x3zS-328" vertex="1">
          <mxGeometry x="30" width="137.738037109375" height="30" as="geometry">
            <mxRectangle width="137.738037109375" height="30" as="alternateBounds" />
          </mxGeometry>
        </mxCell>
        <mxCell id="aesqJSntFiqOSr08x3zS-334" value="" style="shape=tableRow;horizontal=0;startSize=0;swimlaneHead=0;swimlaneBody=0;fillColor=#d5e8d4;collapsible=0;dropTarget=0;points=[[0,0.5],[1,0.5]];portConstraint=eastwest;strokeColor=#82b366;top=0;left=0;right=0;bottom=0;" parent="aesqJSntFiqOSr08x3zS-291" vertex="1">
          <mxGeometry y="240" width="167.738037109375" height="30" as="geometry" />
        </mxCell>
        <mxCell id="aesqJSntFiqOSr08x3zS-335" value="" style="shape=partialRectangle;overflow=hidden;connectable=0;fillColor=#d5e8d4;strokeColor=#82b366;top=0;left=0;bottom=0;right=0;" parent="aesqJSntFiqOSr08x3zS-334" vertex="1">
          <mxGeometry width="30" height="30" as="geometry">
            <mxRectangle width="30" height="30" as="alternateBounds" />
          </mxGeometry>
        </mxCell>
        <mxCell id="aesqJSntFiqOSr08x3zS-336" value="实测套内面积" style="shape=partialRectangle;overflow=hidden;connectable=0;fillColor=#d5e8d4;align=left;strokeColor=#82b366;top=0;left=0;bottom=0;right=0;spacingLeft=6;" parent="aesqJSntFiqOSr08x3zS-334" vertex="1">
          <mxGeometry x="30" width="137.738037109375" height="30" as="geometry">
            <mxRectangle width="137.738037109375" height="30" as="alternateBounds" />
          </mxGeometry>
        </mxCell>
        <mxCell id="aesqJSntFiqOSr08x3zS-345" value="" style="edgeStyle=entityRelationEdgeStyle;fontSize=12;html=1;endArrow=ERoneToMany;rounded=0;curved=1;" parent="1" source="aesqJSntFiqOSr08x3zS-260" target="aesqJSntFiqOSr08x3zS-310" edge="1">
          <mxGeometry width="100" height="100" relative="1" as="geometry">
            <mxPoint x="2233" y="675" as="sourcePoint" />
            <mxPoint x="2333" y="575" as="targetPoint" />
          </mxGeometry>
        </mxCell>
        <mxCell id="aesqJSntFiqOSr08x3zS-346" value="" style="edgeStyle=entityRelationEdgeStyle;fontSize=12;html=1;endArrow=ERoneToMany;rounded=0;curved=1;" parent="1" source="aesqJSntFiqOSr08x3zS-276" target="aesqJSntFiqOSr08x3zS-304" edge="1">
          <mxGeometry width="100" height="100" relative="1" as="geometry">
            <mxPoint x="2233" y="675" as="sourcePoint" />
            <mxPoint x="2333" y="575" as="targetPoint" />
          </mxGeometry>
        </mxCell>
      </root>
    </mxGraphModel>
  </diagram>
  <diagram id="0txPrYwzYbcx6fxyiRdJ" name="营销项目维护流程">
    <mxGraphModel dx="1034" dy="420" grid="1" gridSize="10" guides="1" tooltips="1" connect="1" arrows="1" fold="1" page="1" pageScale="1" pageWidth="827" pageHeight="1169" math="0" shadow="0">
      <root>
        <mxCell id="0" />
        <mxCell id="1" parent="0" />
        <mxCell id="e99E8tjAIfaLlpv-MBt3-8" value="营销项目维护流程" style="swimlane;childLayout=stackLayout;resizeParent=1;resizeParentMax=0;startSize=20;html=1;verticalAlign=middle;" vertex="1" parent="1">
          <mxGeometry x="230" width="730" height="590" as="geometry" />
        </mxCell>
        <mxCell id="e99E8tjAIfaLlpv-MBt3-9" value="统一管理后台" style="swimlane;startSize=20;html=1;verticalAlign=middle;" vertex="1" parent="e99E8tjAIfaLlpv-MBt3-8">
          <mxGeometry y="20" width="290" height="570" as="geometry" />
        </mxCell>
        <mxCell id="e99E8tjAIfaLlpv-MBt3-26" value="" style="edgeStyle=orthogonalEdgeStyle;rounded=0;orthogonalLoop=1;jettySize=auto;html=1;verticalAlign=middle;" edge="1" parent="e99E8tjAIfaLlpv-MBt3-9" source="e99E8tjAIfaLlpv-MBt3-18" target="e99E8tjAIfaLlpv-MBt3-25">
          <mxGeometry relative="1" as="geometry" />
        </mxCell>
        <mxCell id="e99E8tjAIfaLlpv-MBt3-18" value="选择一个ERP项目&lt;div&gt;创建营销项目&lt;/div&gt;" style="whiteSpace=wrap;html=1;verticalAlign=middle;" vertex="1" parent="e99E8tjAIfaLlpv-MBt3-9">
          <mxGeometry x="70" y="60" width="130" height="50" as="geometry" />
        </mxCell>
        <mxCell id="e99E8tjAIfaLlpv-MBt3-25" value="选择好项目数据范围&lt;div&gt;分期-业态-楼栋&lt;/div&gt;" style="whiteSpace=wrap;html=1;verticalAlign=middle;" vertex="1" parent="e99E8tjAIfaLlpv-MBt3-9">
          <mxGeometry x="70" y="190" width="130" height="50" as="geometry" />
        </mxCell>
        <mxCell id="e99E8tjAIfaLlpv-MBt3-10" value="项目中心服务" style="swimlane;startSize=20;html=1;verticalAlign=middle;" vertex="1" parent="e99E8tjAIfaLlpv-MBt3-8">
          <mxGeometry x="290" y="20" width="320" height="570" as="geometry" />
        </mxCell>
        <mxCell id="e99E8tjAIfaLlpv-MBt3-21" value="从中间表中获取此项目数据、组织关系、数据字典" style="whiteSpace=wrap;html=1;verticalAlign=middle;" vertex="1" parent="e99E8tjAIfaLlpv-MBt3-10">
          <mxGeometry x="100" y="55" width="120" height="60" as="geometry" />
        </mxCell>
        <mxCell id="e99E8tjAIfaLlpv-MBt3-11" value="Lane 3" style="swimlane;startSize=20;html=1;verticalAlign=middle;" vertex="1" parent="e99E8tjAIfaLlpv-MBt3-8">
          <mxGeometry x="610" y="20" width="120" height="570" as="geometry" />
        </mxCell>
        <mxCell id="e99E8tjAIfaLlpv-MBt3-22" value="" style="edgeStyle=orthogonalEdgeStyle;rounded=0;orthogonalLoop=1;jettySize=auto;html=1;verticalAlign=middle;" edge="1" parent="e99E8tjAIfaLlpv-MBt3-8" source="e99E8tjAIfaLlpv-MBt3-18" target="e99E8tjAIfaLlpv-MBt3-21">
          <mxGeometry relative="1" as="geometry" />
        </mxCell>
        <mxCell id="e99E8tjAIfaLlpv-MBt3-14" value="" style="edgeStyle=orthogonalEdgeStyle;rounded=0;orthogonalLoop=1;jettySize=auto;html=1;verticalAlign=middle;" edge="1" parent="1" source="e99E8tjAIfaLlpv-MBt3-12" target="e99E8tjAIfaLlpv-MBt3-13">
          <mxGeometry relative="1" as="geometry" />
        </mxCell>
        <mxCell id="e99E8tjAIfaLlpv-MBt3-12" value="创建营销项目" style="rounded=0;whiteSpace=wrap;html=1;verticalAlign=middle;" vertex="1" parent="1">
          <mxGeometry x="270" y="750" width="120" height="60" as="geometry" />
        </mxCell>
        <mxCell id="e99E8tjAIfaLlpv-MBt3-13" value="创建营销项目" style="rounded=0;whiteSpace=wrap;html=1;verticalAlign=middle;" vertex="1" parent="1">
          <mxGeometry x="470" y="750" width="120" height="60" as="geometry" />
        </mxCell>
        <mxCell id="e99E8tjAIfaLlpv-MBt3-16" value="" style="edgeStyle=orthogonalEdgeStyle;rounded=0;orthogonalLoop=1;jettySize=auto;html=1;verticalAlign=middle;" edge="1" parent="1" source="e99E8tjAIfaLlpv-MBt3-15" target="e99E8tjAIfaLlpv-MBt3-12">
          <mxGeometry relative="1" as="geometry" />
        </mxCell>
        <mxCell id="e99E8tjAIfaLlpv-MBt3-15" value="开始" style="strokeWidth=2;html=1;shape=mxgraph.flowchart.start_2;whiteSpace=wrap;verticalAlign=middle;" vertex="1" parent="1">
          <mxGeometry x="100" y="730" width="100" height="100" as="geometry" />
        </mxCell>
        <mxCell id="e99E8tjAIfaLlpv-MBt3-19" value="" style="edgeStyle=orthogonalEdgeStyle;rounded=0;orthogonalLoop=1;jettySize=auto;html=1;verticalAlign=middle;" edge="1" parent="1" source="e99E8tjAIfaLlpv-MBt3-17" target="e99E8tjAIfaLlpv-MBt3-18">
          <mxGeometry relative="1" as="geometry" />
        </mxCell>
        <mxCell id="e99E8tjAIfaLlpv-MBt3-20" value="创建营销项目" style="edgeLabel;html=1;align=center;verticalAlign=middle;resizable=0;points=[];" vertex="1" connectable="0" parent="e99E8tjAIfaLlpv-MBt3-19">
          <mxGeometry x="-0.1569" y="-2" relative="1" as="geometry">
            <mxPoint as="offset" />
          </mxGeometry>
        </mxCell>
        <mxCell id="e99E8tjAIfaLlpv-MBt3-17" value="股份系统管理员" style="shape=umlActor;verticalLabelPosition=bottom;verticalAlign=middle;html=1;" vertex="1" parent="1">
          <mxGeometry x="80" y="75" width="30" height="60" as="geometry" />
        </mxCell>
      </root>
    </mxGraphModel>
  </diagram>
</mxfile>
